<svg width="63" height="86" viewBox="0 0 63 86" fill="none" xmlns="http://www.w3.org/2000/svg">
<g filter="url(#filter0_d_45_949)">
<rect x="6.45215" y="6.11279" width="50" height="72" rx="3.65482" fill="#F2F2F2"/>
<rect x="6.54352" y="6.20416" width="49.8173" height="71.8173" rx="3.56345" stroke="#D2D2D2" stroke-width="0.182741"/>
</g>
<path d="M20.9535 20.8129C20.9535 21.4649 20.8012 22.0146 20.4966 22.4619C20.1921 22.9045 19.7733 23.24 19.2403 23.4684C18.7121 23.6921 18.1124 23.8039 17.4414 23.8039C16.7704 23.8039 16.1684 23.6921 15.6354 23.4684C15.1024 23.24 14.6813 22.9045 14.3719 22.4619C14.0626 22.0146 13.908 21.4649 13.908 20.8129C13.908 20.3751 13.996 19.9801 14.1721 19.628C14.3482 19.2711 14.5932 18.9665 14.9073 18.7143C15.2262 18.4573 15.5997 18.2622 16.028 18.1289C16.4563 17.9909 16.9227 17.9219 17.4272 17.9219C18.1029 17.9219 18.7073 18.0409 19.2403 18.2788C19.7733 18.5168 20.1921 18.8523 20.4966 19.2853C20.8012 19.7184 20.9535 20.2276 20.9535 20.8129ZM18.8834 20.6773C18.8834 20.3585 18.8215 20.0848 18.6978 19.8564C18.5788 19.6232 18.4099 19.4448 18.191 19.321C17.972 19.1973 17.7174 19.1354 17.4272 19.1354C17.1369 19.1354 16.8823 19.1973 16.6634 19.321C16.4444 19.4448 16.2731 19.6232 16.1494 19.8564C16.0304 20.0848 15.9709 20.3585 15.9709 20.6773C15.9709 20.9914 16.0304 21.2627 16.1494 21.4911C16.2731 21.7195 16.4444 21.8956 16.6634 22.0193C16.887 22.1383 17.1464 22.1978 17.4414 22.1978C17.7365 22.1978 17.9911 22.1383 18.2052 22.0193C18.4241 21.8956 18.5907 21.7195 18.7049 21.4911C18.8239 21.2627 18.8834 20.9914 18.8834 20.6773ZM20.7322 16.0231C20.7322 16.5514 20.5918 17.0201 20.311 17.4294C20.0303 17.8339 19.64 18.1503 19.1403 18.3788C18.6454 18.6072 18.0791 18.7214 17.4414 18.7214C16.799 18.7214 16.2279 18.6072 15.7282 18.3788C15.2285 18.1503 14.8383 17.8339 14.5575 17.4294C14.2768 17.0201 14.1364 16.5514 14.1364 16.0231C14.1364 15.395 14.2768 14.8667 14.5575 14.4384C14.8431 14.0054 15.2333 13.677 15.7282 13.4533C16.2279 13.2297 16.7942 13.1178 17.4272 13.1178C18.0696 13.1178 18.6383 13.2297 19.1332 13.4533C19.6329 13.677 20.0231 14.0054 20.3039 14.4384C20.5894 14.8667 20.7322 15.395 20.7322 16.0231ZM18.6764 16.1159C18.6764 15.8351 18.6264 15.5924 18.5265 15.3878C18.4265 15.1784 18.2838 15.0166 18.0982 14.9024C17.9173 14.7882 17.6936 14.7311 17.4272 14.7311C17.1702 14.7311 16.9489 14.7858 16.7633 14.8953C16.5824 15.0047 16.4421 15.1641 16.3421 15.3735C16.2469 15.5782 16.1994 15.8256 16.1994 16.1159C16.1994 16.3967 16.2469 16.6442 16.3421 16.8583C16.4421 17.0677 16.5848 17.2319 16.7704 17.3509C16.956 17.4698 17.1797 17.5293 17.4414 17.5293C17.7032 17.5293 17.9245 17.4698 18.1053 17.3509C18.2909 17.2319 18.4313 17.0677 18.5265 16.8583C18.6264 16.6442 18.6764 16.3967 18.6764 16.1159Z" fill="#F24822"/>
<path fill-rule="evenodd" clip-rule="evenodd" d="M20.037 30.0521C18.0836 30.0822 17.6952 32.3062 17.6952 32.3062C17.6952 32.3062 17.2444 30.0822 15.291 30.0521C13.3375 30.0221 12.1353 31.7351 12.7965 33.5384C13.4577 35.3415 14.1164 35.7473 15.1545 37.0546C16.1925 38.362 17.7027 40.6235 17.6952 41.1569C17.6877 40.6235 19.1354 38.362 20.1735 37.0546C21.2115 35.7473 21.8703 35.3415 22.5315 33.5384C23.1926 31.7351 21.9905 30.0221 20.037 30.0521Z" fill="#F24822"/>
<defs>
<filter id="filter0_d_45_949" x="0.238949" y="0.8133" width="62.4264" height="84.4264" filterUnits="userSpaceOnUse" color-interpolation-filters="sRGB">
<feFlood flood-opacity="0" result="BackgroundImageFix"/>
<feColorMatrix in="SourceAlpha" type="matrix" values="0 0 0 0 0 0 0 0 0 0 0 0 0 0 0 0 0 0 127 0" result="hardAlpha"/>
<feOffset dy="0.913706"/>
<feGaussianBlur stdDeviation="3.1066"/>
<feColorMatrix type="matrix" values="0 0 0 0 0 0 0 0 0 0 0 0 0 0 0 0 0 0 0.1 0"/>
<feBlend mode="normal" in2="BackgroundImageFix" result="effect1_dropShadow_45_949"/>
<feBlend mode="normal" in="SourceGraphic" in2="effect1_dropShadow_45_949" result="shape"/>
</filter>
</defs>
</svg>
