<svg width="64" height="86" viewBox="0 0 64 86" fill="none" xmlns="http://www.w3.org/2000/svg">
<g filter="url(#filter0_d_45_932)">
<rect x="7" y="6" width="50" height="72" rx="3.65482" fill="#F2F2F2"/>
<rect x="7.09137" y="6.09137" width="49.8173" height="71.8173" rx="3.56345" stroke="#D2D2D2" stroke-width="0.182741"/>
</g>
<path d="M21.6084 21.9422V23.5483H14.4986V22.1778L17.8608 18.5729C18.1987 18.197 18.4652 17.8662 18.6603 17.5807C18.8554 17.2904 18.9958 17.031 19.0814 16.8026C19.1719 16.5694 19.2171 16.3481 19.2171 16.1388C19.2171 15.8247 19.1647 15.5558 19.06 15.3321C18.9553 15.1037 18.8007 14.9276 18.596 14.8039C18.3962 14.6802 18.1487 14.6183 17.8537 14.6183C17.5396 14.6183 17.2683 14.6944 17.0399 14.8467C16.8162 14.999 16.6449 15.2108 16.5259 15.482C16.4117 15.7533 16.3546 16.0602 16.3546 16.4029H14.2916C14.2916 15.7842 14.4392 15.2179 14.7342 14.704C15.0293 14.1852 15.4457 13.7736 15.9834 13.469C16.5212 13.1597 17.1589 13.005 17.8965 13.005C18.6246 13.005 19.2385 13.124 19.7382 13.3619C20.2426 13.5951 20.6233 13.933 20.8803 14.3756C21.142 14.8134 21.2729 15.3369 21.2729 15.946C21.2729 16.2887 21.2182 16.6242 21.1087 16.9525C20.9993 17.2761 20.8422 17.5997 20.6376 17.9233C20.4377 18.2422 20.195 18.5658 19.9095 18.8942C19.624 19.2225 19.3075 19.5628 18.9601 19.9149L17.1541 21.9422H21.6084Z" fill="black"/>
<path fill-rule="evenodd" clip-rule="evenodd" d="M20.7501 37.4286C22.6302 37.4529 23.7869 36.0694 23.1507 34.6131C22.5145 33.1567 21.8802 32.8291 20.8815 31.7733C19.8823 30.7175 18.4294 28.891 18.4363 28.4602C18.4437 28.891 17.0506 30.7175 16.0514 31.7733C15.0527 32.8291 14.4189 33.1567 13.7822 34.6131C13.146 36.0694 14.3032 37.4529 16.1828 37.4286C17.4734 37.4119 18.0542 36.5604 18.2911 36.028L18.2911 36.7248C18.2911 36.7248 17.8791 39.238 14.9713 39.5132L14.5077 39.5132L14.5077 39.9048L22.4257 39.9048L22.4257 39.5132L21.9617 39.5132C19.0543 39.238 18.6418 36.7248 18.6418 36.7248L18.6418 36.1195C18.9209 36.6525 19.5311 37.4129 20.7501 37.4286Z" fill="#1A1919"/>
<defs>
<filter id="filter0_d_45_932" x="0.786801" y="0.700507" width="62.4264" height="84.4264" filterUnits="userSpaceOnUse" color-interpolation-filters="sRGB">
<feFlood flood-opacity="0" result="BackgroundImageFix"/>
<feColorMatrix in="SourceAlpha" type="matrix" values="0 0 0 0 0 0 0 0 0 0 0 0 0 0 0 0 0 0 127 0" result="hardAlpha"/>
<feOffset dy="0.913706"/>
<feGaussianBlur stdDeviation="3.1066"/>
<feColorMatrix type="matrix" values="0 0 0 0 0 0 0 0 0 0 0 0 0 0 0 0 0 0 0.1 0"/>
<feBlend mode="normal" in2="BackgroundImageFix" result="effect1_dropShadow_45_932"/>
<feBlend mode="normal" in="SourceGraphic" in2="effect1_dropShadow_45_932" result="shape"/>
</filter>
</defs>
</svg>
