<?xml version="1.0" encoding="UTF-8"?>
<!--Generator: Apple Native CoreSVG 175.5-->
<!DOCTYPE svg
PUBLIC "-//W3C//DTD SVG 1.1//EN"
       "http://www.w3.org/Graphics/SVG/1.1/DTD/svg11.dtd">
<svg version="1.1" xmlns="http://www.w3.org/2000/svg" xmlns:xlink="http://www.w3.org/1999/xlink" width="29.8828" height="29.8975">
 <g>
  <rect height="29.8975" opacity="0" width="29.8828" x="0" y="0"/>
  <path d="M14.9414 29.8828C23.1152 29.8828 29.8828 23.1152 29.8828 14.9414C29.8828 6.78223 23.1006 0 14.9268 0C6.76758 0 0 6.78223 0 14.9414C0 23.1152 6.78223 29.8828 14.9414 29.8828Z" fill="#007aff"/>
  <path d="M15.0146 23.3789C10.708 23.3789 7.29492 20.4932 6.5625 16.2891L4.96582 16.2891C4.24805 16.2891 4.11621 15.6152 4.49707 15.0732L6.91406 11.6602C7.35352 11.0742 8.05664 11.1035 8.45215 11.6602L10.9131 15.0732C11.2939 15.6152 11.1475 16.2891 10.4297 16.2891L8.84766 16.2891C9.52148 18.9551 12.0117 20.9766 15.0146 20.9766C16.4795 20.9766 17.5635 20.5225 18.6475 19.6875C19.248 19.2334 19.9365 19.1455 20.4639 19.7168C21.0059 20.2734 20.8301 21.0645 20.0977 21.6357C18.7939 22.7197 16.9043 23.3789 15.0146 23.3789ZM14.9854 6.44531C19.292 6.44531 22.6904 9.33105 23.4375 13.5352L24.9463 13.5352C25.6641 13.5352 25.7959 14.209 25.415 14.751L22.998 18.1494C22.5586 18.75 21.8555 18.7061 21.4453 18.1494L18.999 14.751C18.6182 14.209 18.7646 13.5352 19.4678 13.5352L21.1523 13.5352C20.4785 10.8545 17.9883 8.83301 14.9854 8.83301C13.5205 8.83301 12.4365 9.30176 11.3525 10.1367C10.752 10.5762 10.0488 10.6787 9.53613 10.1074C9.00879 9.55078 9.16992 8.75977 9.90234 8.17383C11.2061 7.10449 13.0957 6.44531 14.9854 6.44531Z" fill="#ffffff" fill-opacity="0.85"/>
 </g>
</svg>
