<svg width="64" height="86" viewBox="0 0 64 86" fill="none" xmlns="http://www.w3.org/2000/svg">
<g filter="url(#filter0_d_45_939)">
<rect x="7" y="6" width="50" height="72" rx="3.65482" fill="#F2F2F2"/>
<rect x="7.09137" y="6.09137" width="49.8173" height="71.8173" rx="3.56345" stroke="#D2D2D2" stroke-width="0.182741"/>
</g>
<path d="M16.4331 18.8156L14.7913 18.423L15.3838 13.1549H21.2229V14.8182H17.0756L16.8186 17.1238C16.9566 17.0429 17.166 16.9573 17.4468 16.8669C17.7275 16.7717 18.0416 16.7241 18.389 16.7241C18.8935 16.7241 19.3408 16.8026 19.731 16.9597C20.1213 17.1167 20.452 17.3451 20.7233 17.6449C20.9993 17.9448 21.2087 18.3112 21.3514 18.7442C21.4942 19.1773 21.5656 19.6675 21.5656 20.2147C21.5656 20.6764 21.4942 21.1165 21.3514 21.5353C21.2087 21.9494 20.9921 22.3205 20.7018 22.6489C20.4116 22.9725 20.0475 23.2271 19.6097 23.4127C19.1719 23.5983 18.6531 23.6911 18.0535 23.6911C17.6062 23.6911 17.1731 23.6245 16.7543 23.4912C16.3403 23.358 15.9668 23.1605 15.6336 22.8988C15.3053 22.637 15.0412 22.3205 14.8413 21.9494C14.6462 21.5734 14.5438 21.1451 14.5343 20.6645H16.5759C16.6044 20.9595 16.6806 21.2141 16.8043 21.4283C16.9328 21.6376 17.1017 21.7994 17.3111 21.9137C17.5205 22.0279 17.7656 22.085 18.0464 22.085C18.3081 22.085 18.5318 22.035 18.7174 21.9351C18.903 21.8351 19.0529 21.6971 19.1671 21.5211C19.2813 21.3402 19.3646 21.1308 19.4169 20.8929C19.4741 20.6502 19.5026 20.3884 19.5026 20.1077C19.5026 19.8269 19.4693 19.5723 19.4027 19.3439C19.336 19.1154 19.2337 18.9179 19.0957 18.7514C18.9577 18.5848 18.7816 18.4563 18.5675 18.3659C18.3581 18.2755 18.113 18.2303 17.8322 18.2303C17.4515 18.2303 17.1565 18.2898 16.9471 18.4087C16.7425 18.5277 16.5711 18.6633 16.4331 18.8156Z" fill="#050505"/>
<path fill-rule="evenodd" clip-rule="evenodd" d="M21.0263 32.9155C20.7158 32.9155 20.4199 32.9833 20.1501 33.1056C20.4035 32.7055 20.5521 32.2209 20.5521 31.6982C20.5521 30.3267 19.5306 29.2148 18.2706 29.2148C17.0106 29.2148 15.9892 30.3267 15.9892 31.6982C15.9892 32.1958 16.1242 32.6589 16.3557 33.0474C16.1255 32.9623 15.879 32.9155 15.6224 32.9155C14.3624 32.9155 13.3409 34.0274 13.3409 35.3989C13.3409 36.7704 14.3624 37.8822 15.6224 37.8822C15.907 37.8822 16.1792 37.825 16.4304 37.7214C16.4303 37.722 17.4922 37.4099 18.1901 36.027V36.8596C18.1901 36.8596 17.8323 39.4842 15.3093 39.7715H14.9066V40.1805H21.7778V39.7715H21.3752C18.8522 39.4842 18.4943 36.8596 18.4943 36.8596V36.0831C18.6243 36.3947 19.3431 37.9183 20.9585 37.8805C20.9811 37.8811 21.0035 37.8822 21.0263 37.8822C22.2863 37.8822 23.3077 36.7704 23.3077 35.3989C23.3077 34.0274 22.2863 32.9155 21.0263 32.9155Z" fill="#1A1919"/>
<defs>
<filter id="filter0_d_45_939" x="0.786801" y="0.700507" width="62.4264" height="84.4264" filterUnits="userSpaceOnUse" color-interpolation-filters="sRGB">
<feFlood flood-opacity="0" result="BackgroundImageFix"/>
<feColorMatrix in="SourceAlpha" type="matrix" values="0 0 0 0 0 0 0 0 0 0 0 0 0 0 0 0 0 0 127 0" result="hardAlpha"/>
<feOffset dy="0.913706"/>
<feGaussianBlur stdDeviation="3.1066"/>
<feColorMatrix type="matrix" values="0 0 0 0 0 0 0 0 0 0 0 0 0 0 0 0 0 0 0.1 0"/>
<feBlend mode="normal" in2="BackgroundImageFix" result="effect1_dropShadow_45_939"/>
<feBlend mode="normal" in="SourceGraphic" in2="effect1_dropShadow_45_939" result="shape"/>
</filter>
</defs>
</svg>
