<?xml version="1.0" encoding="UTF-8"?>
<!--Generator: Apple Native CoreSVG 175.5-->
<!DOCTYPE svg
PUBLIC "-//W3C//DTD SVG 1.1//EN"
       "http://www.w3.org/Graphics/SVG/1.1/DTD/svg11.dtd">
<svg version="1.1" xmlns="http://www.w3.org/2000/svg" xmlns:xlink="http://www.w3.org/1999/xlink" width="29.8828" height="29.8975">
 <g>
  <rect height="29.8975" opacity="0" width="29.8828" x="0" y="0"/>
  <path d="M14.9414 29.8975C23.1152 29.8975 29.8828 23.1299 29.8828 14.9561C29.8828 6.79688 23.1006 0.0146484 14.9268 0.0146484C6.76758 0.0146484 0 6.79688 0 14.9561C0 23.1299 6.78223 29.8975 14.9414 29.8975Z" fill="#007aff"/>
  <path d="M13.5498 21.4746C13.1543 21.4746 12.8467 21.2988 12.4658 20.9473L6.03516 14.9121C5.72754 14.6191 5.625 14.3262 5.625 14.0332C5.625 13.7549 5.72754 13.4619 6.03516 13.1689L12.4658 7.17773C12.8906 6.76758 13.1396 6.60645 13.5352 6.60645C14.1064 6.60645 14.5166 7.0459 14.5166 7.58789L14.5166 10.6641L14.751 10.6641C20.5664 10.6641 23.1299 14.3848 23.1299 20.4053C23.1299 21.1084 22.7051 21.4746 22.2803 21.4746C21.9287 21.4746 21.5625 21.3867 21.2842 20.874C19.8779 18.2227 17.8857 17.417 14.751 17.417L14.5166 17.417L14.5166 20.5371C14.5166 21.0645 14.1064 21.4746 13.5498 21.4746Z" fill="#ffffff" fill-opacity="0.85"/>
 </g>
</svg>
