<svg width="64" height="86" viewBox="0 0 64 86" fill="none" xmlns="http://www.w3.org/2000/svg">
<g filter="url(#filter0_d_45_930)">
<rect x="7.16138" y="6.11279" width="50" height="72" rx="3.65482" fill="#F2F2F2"/>
<rect x="7.25275" y="6.20416" width="49.8173" height="71.8173" rx="3.56345" stroke="#D2D2D2" stroke-width="0.182741"/>
</g>
<path d="M21.7698 22.055V23.6611H14.66V22.2906L18.0222 18.6857C18.36 18.3098 18.6265 17.979 18.8217 17.6935C19.0168 17.4032 19.1572 17.1438 19.2428 16.9154C19.3332 16.6822 19.3784 16.4609 19.3784 16.2516C19.3784 15.9375 19.3261 15.6686 19.2214 15.4449C19.1167 15.2165 18.962 15.0404 18.7574 14.9167C18.5575 14.793 18.3101 14.7311 18.015 14.7311C17.7009 14.7311 17.4297 14.8072 17.2013 14.9595C16.9776 15.1118 16.8063 15.3236 16.6873 15.5948C16.5731 15.8661 16.516 16.173 16.516 16.5157H14.453C14.453 15.897 14.6005 15.3307 14.8956 14.8167C15.1906 14.298 15.607 13.8864 16.1448 13.5818C16.6825 13.2725 17.3202 13.1178 18.0579 13.1178C18.786 13.1178 19.3999 13.2368 19.8995 13.4747C20.404 13.7079 20.7847 14.0458 21.0417 14.4884C21.3034 14.9262 21.4343 15.4497 21.4343 16.0588C21.4343 16.4015 21.3796 16.737 21.2701 17.0653C21.1607 17.3889 21.0036 17.7125 20.799 18.0361C20.5991 18.355 20.3564 18.6786 20.0709 19.0069C19.7853 19.3353 19.4689 19.6756 19.1215 20.0277L17.3155 22.055H21.7698Z" fill="#F24822"/>
<path fill-rule="evenodd" clip-rule="evenodd" d="M20.7462 30.0521C18.7928 30.0822 18.4044 32.3062 18.4044 32.3062C18.4044 32.3062 17.9537 30.0822 16.0002 30.0521C14.0467 30.0221 12.8445 31.7351 13.5057 33.5384C14.1669 35.3415 14.8257 35.7473 15.8637 37.0546C16.9018 38.362 18.412 40.6235 18.4044 41.1569C18.397 40.6235 19.8446 38.362 20.8827 37.0546C21.9208 35.7473 22.5795 35.3415 23.2407 33.5384C23.9019 31.7351 22.6998 30.0221 20.7462 30.0521Z" fill="#F24822"/>
<defs>
<filter id="filter0_d_45_930" x="0.948178" y="0.8133" width="62.4264" height="84.4264" filterUnits="userSpaceOnUse" color-interpolation-filters="sRGB">
<feFlood flood-opacity="0" result="BackgroundImageFix"/>
<feColorMatrix in="SourceAlpha" type="matrix" values="0 0 0 0 0 0 0 0 0 0 0 0 0 0 0 0 0 0 127 0" result="hardAlpha"/>
<feOffset dy="0.913706"/>
<feGaussianBlur stdDeviation="3.1066"/>
<feColorMatrix type="matrix" values="0 0 0 0 0 0 0 0 0 0 0 0 0 0 0 0 0 0 0.1 0"/>
<feBlend mode="normal" in2="BackgroundImageFix" result="effect1_dropShadow_45_930"/>
<feBlend mode="normal" in="SourceGraphic" in2="effect1_dropShadow_45_930" result="shape"/>
</filter>
</defs>
</svg>
