<svg width="40" height="40" viewBox="0 0 40 40" fill="none" xmlns="http://www.w3.org/2000/svg">
<path d="M28.8129 35.857H10.444C9.64651 35.857 9 35.2105 9 34.413V5.44395C9 4.64648 9.64651 3.99997 10.444 3.99997H28.8129C29.6103 3.99997 30.2569 4.64648 30.2569 5.44395V34.413C30.2569 35.2105 29.6103 35.857 28.8129 35.857Z" fill="url(#paint0_linear_319_1279)"/>
<path d="M11.2644 11.6478C11.2644 11.6321 11.2695 11.6035 11.2801 11.5615L12.7387 6.77779C12.7805 6.64719 12.876 6.54646 13.0249 6.47584C13.174 6.4053 13.3452 6.37 13.5387 6.37C13.732 6.37 13.9034 6.4053 14.0523 6.47584C14.2013 6.54646 14.2966 6.64719 14.3386 6.77779L15.805 11.5615C15.8155 11.6034 15.8208 11.6321 15.8208 11.6478C15.8208 11.7838 15.7357 11.9015 15.5659 12.0007C15.396 12.1001 15.2195 12.1497 15.0365 12.1497C14.8117 12.1497 14.6783 12.074 14.6366 11.9223L14.37 10.942H12.7153L12.4487 11.9223C12.4068 12.074 12.2734 12.1497 12.0487 12.1497C11.8656 12.1497 11.6892 12.1002 11.5194 12.0007C11.3493 11.9015 11.2644 11.7838 11.2644 11.6478ZM12.9662 10.0009H14.1111L13.5387 7.89921L12.9662 10.0009Z" fill="#9B62CD"/>
<path d="M28.8129 4.00006H28.4147V32.5709C28.4147 33.3684 27.7681 34.0149 26.9707 34.0149H9V34.4131C9 35.2106 9.64651 35.8571 10.444 35.8571H28.8129C29.6103 35.8571 30.2569 35.2106 30.2569 34.4131V5.44396C30.2569 4.64649 29.6103 4.00006 28.8129 4.00006Z" fill="url(#paint1_linear_319_1279)"/>
<path d="M25.3122 18.5994L20.276 13.6383C19.884 13.2522 19.2532 13.2569 18.867 13.6489L13.906 18.6852C12.4928 20.1197 12.5102 22.4282 13.9447 23.8413C15.2428 25.12 17.2564 25.2273 18.6747 24.1732C18.4688 24.816 18.1713 25.3725 17.818 25.7721C17.6389 25.9747 17.7132 26.5053 17.9206 26.5053H21.3361C21.5436 26.5053 21.6179 25.9748 21.4387 25.7721C21.0686 25.3533 20.7441 24.7624 20.5231 24.0803C21.9624 25.1964 24.0411 25.0852 25.3509 23.7555C26.7641 22.321 26.7467 20.0125 25.3122 18.5994Z" fill="url(#paint2_linear_319_1279)"/>
<path d="M26.3995 21.1966C26.3995 22.1205 26.0508 23.0456 25.351 23.7555C24.041 25.0848 21.9621 25.1958 20.523 24.0804C20.6339 24.4212 20.7698 24.7394 20.9249 25.0247C21.08 25.31 21.2544 25.5626 21.439 25.7721C21.6179 25.9747 21.5432 26.5047 21.3359 26.5047H17.921C17.7137 26.5047 17.639 25.9747 17.8179 25.7721C17.9504 25.6226 18.0749 25.4516 18.1904 25.2614V25.2603C18.3818 24.9432 18.5459 24.5752 18.675 24.1733C18.0331 24.6511 17.2676 24.89 16.5034 24.89C15.6949 24.89 14.8865 24.6228 14.2207 24.0872C14.2184 24.086 14.2173 24.086 14.2184 24.0849C13.0657 22.6616 13.1428 20.5714 14.4573 19.2365L19.4178 14.2C19.8039 13.8083 20.4346 13.8026 20.8274 14.1888L25.454 18.7473C26.0847 19.4404 26.3995 20.3192 26.3995 21.1966Z" fill="url(#paint3_linear_319_1279)"/>
<path d="M11.5465 5.10247C10.749 5.10247 10.1026 5.74897 10.1026 6.54645V35.5155C10.1026 35.6213 10.1147 35.724 10.1363 35.8233C10.2356 35.8449 10.3384 35.857 10.4442 35.857H28.8129C29.6104 35.857 30.2569 35.2105 30.2569 34.413V5.44394C30.2569 5.33818 30.2448 5.23542 30.2232 5.13607C30.1221 5.11386 30.0188 5.10256 29.9153 5.10239L11.5465 5.10247Z" fill="url(#paint4_linear_319_1279)"/>
<defs>
<linearGradient id="paint0_linear_319_1279" x1="17.1372" y1="17.4372" x2="46.7291" y2="47.0291" gradientUnits="userSpaceOnUse">
<stop stop-color="#E4F2FF"/>
<stop offset="1" stop-color="#B2CBFF"/>
</linearGradient>
<linearGradient id="paint1_linear_319_1279" x1="26.5105" y1="20.9841" x2="67.3942" y2="1.92175" gradientUnits="userSpaceOnUse">
<stop stop-color="#3F3CED" stop-opacity="0"/>
<stop offset="0.28" stop-color="#3C3DE4" stop-opacity="0.28"/>
<stop offset="0.731" stop-color="#3541CC" stop-opacity="0.731"/>
<stop offset="1" stop-color="#2F43BB"/>
</linearGradient>
<linearGradient id="paint2_linear_319_1279" x1="17.1449" y1="18.2889" x2="22.3885" y2="24.4781" gradientUnits="userSpaceOnUse">
<stop stop-color="#9B62CD"/>
<stop offset="0.3" stop-color="#985DCB"/>
<stop offset="0.672" stop-color="#8F4EC7"/>
<stop offset="1" stop-color="#833AC1"/>
</linearGradient>
<linearGradient id="paint3_linear_319_1279" x1="20.1356" y1="22.098" x2="14.9328" y2="8.54139" gradientUnits="userSpaceOnUse">
<stop stop-color="#9B62CD" stop-opacity="0"/>
<stop offset="1" stop-color="#FF75C8"/>
</linearGradient>
<linearGradient id="paint4_linear_319_1279" x1="20.3174" y1="20.5783" x2="0.464022" y2="6.36504" gradientUnits="userSpaceOnUse">
<stop stop-color="white" stop-opacity="0"/>
<stop offset="1" stop-color="white"/>
</linearGradient>
</defs>
</svg>
