<svg width="64" height="86" viewBox="0 0 64 86" fill="none" xmlns="http://www.w3.org/2000/svg">
<g filter="url(#filter0_d_45_964)">
<rect x="7.06604" y="6.11279" width="50" height="72" rx="3.65482" fill="#F2F2F2"/>
<rect x="7.15741" y="6.20416" width="49.8173" height="71.8173" rx="3.56345" stroke="#D2D2D2" stroke-width="0.182741"/>
</g>
<path d="M16.4706 13.2677V23.6611H14.3291V13.2677H16.4706ZM22.6952 13.2677L18.5764 18.4002L16.1994 20.9557L15.8139 18.9284L17.42 16.7298L20.0683 13.2677H22.6952ZM20.2611 23.6611L17.1987 18.857L18.7834 17.5293L22.7952 23.6611H20.2611Z" fill="#F24822"/>
<path fill-rule="evenodd" clip-rule="evenodd" d="M20.6509 30.0521C18.6974 30.0822 18.3091 32.3062 18.3091 32.3062C18.3091 32.3062 17.8583 30.0822 15.9049 30.0521C13.9514 30.0221 12.7492 31.7351 13.4104 33.5384C14.0716 35.3415 14.7303 35.7473 15.7684 37.0546C16.8064 38.362 18.3166 40.6235 18.3091 41.1569C18.3016 40.6235 19.7493 38.362 20.7874 37.0546C21.8254 35.7473 22.4842 35.3415 23.1454 33.5384C23.8065 31.7351 22.6044 30.0221 20.6509 30.0521Z" fill="#F24822"/>
<defs>
<filter id="filter0_d_45_964" x="0.852841" y="0.8133" width="62.4264" height="84.4264" filterUnits="userSpaceOnUse" color-interpolation-filters="sRGB">
<feFlood flood-opacity="0" result="BackgroundImageFix"/>
<feColorMatrix in="SourceAlpha" type="matrix" values="0 0 0 0 0 0 0 0 0 0 0 0 0 0 0 0 0 0 127 0" result="hardAlpha"/>
<feOffset dy="0.913706"/>
<feGaussianBlur stdDeviation="3.1066"/>
<feColorMatrix type="matrix" values="0 0 0 0 0 0 0 0 0 0 0 0 0 0 0 0 0 0 0.1 0"/>
<feBlend mode="normal" in2="BackgroundImageFix" result="effect1_dropShadow_45_964"/>
<feBlend mode="normal" in="SourceGraphic" in2="effect1_dropShadow_45_964" result="shape"/>
</filter>
</defs>
</svg>
