<svg width="63" height="86" viewBox="0 0 63 86" fill="none" xmlns="http://www.w3.org/2000/svg">
<g filter="url(#filter0_d_45_940)">
<rect x="6.48413" y="6.11279" width="50" height="72" rx="3.65482" fill="#F2F2F2"/>
<rect x="6.5755" y="6.20416" width="49.8173" height="71.8173" rx="3.56345" stroke="#D2D2D2" stroke-width="0.182741"/>
</g>
<path d="M15.9173 18.9284L14.2754 18.5358L14.8679 13.2677H20.7071V14.931H16.5597L16.3027 17.2366C16.4407 17.1557 16.6501 17.0701 16.9309 16.9797C17.2117 16.8845 17.5258 16.8369 17.8732 16.8369C18.3776 16.8369 18.8249 16.9154 19.2152 17.0725C19.6054 17.2295 19.9361 17.4579 20.2074 17.7577C20.4834 18.0575 20.6928 18.424 20.8356 18.857C20.9783 19.2901 21.0497 19.7803 21.0497 20.3275C21.0497 20.7891 20.9783 21.2293 20.8356 21.6481C20.6928 22.0621 20.4763 22.4333 20.186 22.7617C19.8957 23.0853 19.5316 23.3399 19.0938 23.5255C18.656 23.7111 18.1373 23.8039 17.5377 23.8039C17.0903 23.8039 16.6573 23.7373 16.2385 23.604C15.8245 23.4708 15.4509 23.2733 15.1178 23.0115C14.7894 22.7498 14.5253 22.4333 14.3254 22.0621C14.1303 21.6862 14.028 21.2579 14.0185 20.7772H16.06C16.0886 21.0723 16.1647 21.3269 16.2884 21.5411C16.4169 21.7504 16.5859 21.9122 16.7953 22.0265C17.0047 22.1407 17.2497 22.1978 17.5305 22.1978C17.7923 22.1978 18.0159 22.1478 18.2015 22.0479C18.3871 21.9479 18.537 21.8099 18.6512 21.6338C18.7654 21.453 18.8487 21.2436 18.9011 21.0057C18.9582 20.763 18.9867 20.5012 18.9867 20.2205C18.9867 19.9397 18.9534 19.6851 18.8868 19.4567C18.8202 19.2282 18.7179 19.0307 18.5799 18.8642C18.4418 18.6976 18.2658 18.5691 18.0516 18.4787C17.8422 18.3883 17.5971 18.3431 17.3164 18.3431C16.9357 18.3431 16.6406 18.4026 16.4312 18.5215C16.2266 18.6405 16.0553 18.7761 15.9173 18.9284Z" fill="#F24822"/>
<path fill-rule="evenodd" clip-rule="evenodd" d="M20.069 30.0521C18.1155 30.0822 17.7272 32.3062 17.7272 32.3062C17.7272 32.3062 17.2764 30.0822 15.323 30.0521C13.3694 30.0221 12.1673 31.7351 12.8285 33.5384C13.4896 35.3415 14.1484 35.7473 15.1865 37.0546C16.2245 38.362 17.7347 40.6235 17.7272 41.1569C17.7197 40.6235 19.1674 38.362 20.2055 37.0546C21.2435 35.7473 21.9023 35.3415 22.5635 33.5384C23.2246 31.7351 22.0225 30.0221 20.069 30.0521Z" fill="#F24822"/>
<defs>
<filter id="filter0_d_45_940" x="0.270932" y="0.8133" width="62.4264" height="84.4264" filterUnits="userSpaceOnUse" color-interpolation-filters="sRGB">
<feFlood flood-opacity="0" result="BackgroundImageFix"/>
<feColorMatrix in="SourceAlpha" type="matrix" values="0 0 0 0 0 0 0 0 0 0 0 0 0 0 0 0 0 0 127 0" result="hardAlpha"/>
<feOffset dy="0.913706"/>
<feGaussianBlur stdDeviation="3.1066"/>
<feColorMatrix type="matrix" values="0 0 0 0 0 0 0 0 0 0 0 0 0 0 0 0 0 0 0.1 0"/>
<feBlend mode="normal" in2="BackgroundImageFix" result="effect1_dropShadow_45_940"/>
<feBlend mode="normal" in="SourceGraphic" in2="effect1_dropShadow_45_940" result="shape"/>
</filter>
</defs>
</svg>
