<?xml version="1.0" encoding="UTF-8"?>
<!--Generator: Apple Native CoreSVG 175.5-->
<!DOCTYPE svg
PUBLIC "-//W3C//DTD SVG 1.1//EN"
       "http://www.w3.org/Graphics/SVG/1.1/DTD/svg11.dtd">
<svg version="1.1" xmlns="http://www.w3.org/2000/svg" xmlns:xlink="http://www.w3.org/1999/xlink" width="29.8828" height="29.8975">
 <g>
  <rect height="29.8975" opacity="0" width="29.8828" x="0" y="0"/>
  <path d="M14.9414 29.8975C23.1152 29.8975 29.8828 23.1299 29.8828 14.9561C29.8828 6.79688 23.1006 0.0146484 14.9268 0.0146484C6.76758 0.0146484 0 6.79688 0 14.9561C0 23.1299 6.78223 29.8975 14.9414 29.8975Z" fill="#007aff"/>
  <path d="M7.42676 21.4746C7.00195 21.4746 6.5918 21.1084 6.5918 20.4053C6.5918 14.3848 9.15527 10.6641 14.9707 10.6641L15.2051 10.6641L15.2051 7.58789C15.2051 7.0459 15.6006 6.60645 16.1719 6.60645C16.582 6.60645 16.8311 6.76758 17.2559 7.17773L23.6719 13.1689C23.9941 13.4619 24.0967 13.7549 24.0967 14.0332C24.0967 14.3262 23.9941 14.6191 23.6719 14.9121L17.2559 20.9473C16.875 21.2988 16.5674 21.4746 16.1572 21.4746C15.6006 21.4746 15.2051 21.0645 15.2051 20.5371L15.2051 17.417L14.9707 17.417C11.8213 17.417 9.84375 18.2227 8.42285 20.874C8.15918 21.3867 7.77832 21.4746 7.42676 21.4746Z" fill="#ffffff" fill-opacity="0.85"/>
 </g>
</svg>
