<svg width="64" height="86" viewBox="0 0 64 86" fill="none" xmlns="http://www.w3.org/2000/svg">
<g filter="url(#filter0_d_45_956)">
<rect x="7" y="6" width="50" height="72" rx="3.65482" fill="#F2F2F2"/>
<rect x="7.09137" y="6.09137" width="49.8173" height="71.8173" rx="3.56345" stroke="#D2D2D2" stroke-width="0.182741"/>
</g>
<path d="M15.3124 13.1335V23.5483H13.2566V15.5034L10.7867 16.2887V14.6683L15.0911 13.1335H15.3124ZM25.6915 17.4379V19.2368C25.6915 20.0172 25.6083 20.6906 25.4417 21.2569C25.2751 21.8185 25.0348 22.2801 24.7207 22.6418C24.4114 22.9987 24.0426 23.2628 23.6143 23.4341C23.186 23.6054 22.7101 23.6911 22.1866 23.6911C21.7678 23.6911 21.3776 23.6388 21.0159 23.5341C20.6543 23.4246 20.3283 23.2557 20.038 23.0272C19.7524 22.7988 19.505 22.5109 19.2956 22.1635C19.091 21.8113 18.9339 21.3926 18.8245 20.9072C18.715 20.4218 18.6603 19.865 18.6603 19.2368V17.4379C18.6603 16.6575 18.7436 15.9889 18.9101 15.4321C19.0814 14.8705 19.3218 14.4113 19.6311 14.0544C19.9452 13.6975 20.3164 13.4357 20.7447 13.2692C21.173 13.0978 21.6489 13.0122 22.1723 13.0122C22.5911 13.0122 22.979 13.0669 23.3359 13.1764C23.6976 13.281 24.0235 13.4452 24.3138 13.6689C24.6041 13.8926 24.8516 14.1805 25.0562 14.5326C25.2609 14.88 25.4179 15.2964 25.5274 15.7818C25.6368 16.2625 25.6915 16.8145 25.6915 17.4379ZM23.6286 19.508V17.1595C23.6286 16.7836 23.6071 16.4552 23.5643 16.1744C23.5262 15.8937 23.4668 15.6557 23.3859 15.4606C23.305 15.2607 23.205 15.0989 23.086 14.9752C22.9671 14.8515 22.8314 14.7611 22.6792 14.704C22.5269 14.6468 22.3579 14.6183 22.1723 14.6183C21.9392 14.6183 21.7321 14.6635 21.5513 14.7539C21.3752 14.8443 21.2253 14.9895 21.1016 15.1894C20.9779 15.3845 20.8827 15.6462 20.8161 15.9746C20.7542 16.2982 20.7233 16.6932 20.7233 17.1595V19.508C20.7233 19.884 20.7423 20.2147 20.7804 20.5003C20.8232 20.7858 20.8851 21.0309 20.966 21.2355C21.0516 21.4354 21.1516 21.5996 21.2658 21.7281C21.3847 21.8518 21.5204 21.9422 21.6727 21.9993C21.8297 22.0564 22.001 22.085 22.1866 22.085C22.415 22.085 22.6173 22.0398 22.7934 21.9494C22.9742 21.8542 23.1265 21.7067 23.2502 21.5068C23.3787 21.3021 23.4739 21.0356 23.5358 20.7073C23.5976 20.3789 23.6286 19.9792 23.6286 19.508Z" fill="black"/>
<path fill-rule="evenodd" clip-rule="evenodd" d="M20.75 37.4286C22.6301 37.4529 23.7868 36.0694 23.1506 34.6131C22.5144 33.1567 21.8801 32.8291 20.8814 31.7733C19.8822 30.7175 18.4293 28.891 18.4362 28.4602C18.4435 28.891 17.0504 30.7175 16.0513 31.7733C15.0526 32.8291 14.4188 33.1567 13.7821 34.6131C13.1459 36.0694 14.303 37.4529 16.1827 37.4286C17.4733 37.4119 18.0541 36.5604 18.291 36.028L18.291 36.7248C18.291 36.7248 17.8789 39.238 14.9711 39.5132L14.5076 39.5132L14.5076 39.9048L22.4256 39.9048L22.4256 39.5132L21.9615 39.5132C19.0542 39.238 18.6417 36.7248 18.6417 36.7248L18.6417 36.1195C18.9208 36.6525 19.531 37.4129 20.75 37.4286Z" fill="#1A1919"/>
<defs>
<filter id="filter0_d_45_956" x="0.786801" y="0.700507" width="62.4264" height="84.4264" filterUnits="userSpaceOnUse" color-interpolation-filters="sRGB">
<feFlood flood-opacity="0" result="BackgroundImageFix"/>
<feColorMatrix in="SourceAlpha" type="matrix" values="0 0 0 0 0 0 0 0 0 0 0 0 0 0 0 0 0 0 127 0" result="hardAlpha"/>
<feOffset dy="0.913706"/>
<feGaussianBlur stdDeviation="3.1066"/>
<feColorMatrix type="matrix" values="0 0 0 0 0 0 0 0 0 0 0 0 0 0 0 0 0 0 0.1 0"/>
<feBlend mode="normal" in2="BackgroundImageFix" result="effect1_dropShadow_45_956"/>
<feBlend mode="normal" in="SourceGraphic" in2="effect1_dropShadow_45_956" result="shape"/>
</filter>
</defs>
</svg>
