<svg width="64" height="86" viewBox="0 0 64 86" fill="none" xmlns="http://www.w3.org/2000/svg">
<g filter="url(#filter0_d_45_946)">
<rect x="7.12964" y="6.11279" width="50" height="72" rx="3.65482" fill="#F2F2F2"/>
<rect x="7.22101" y="6.20416" width="49.8173" height="71.8173" rx="3.56345" stroke="#D2D2D2" stroke-width="0.182741"/>
</g>
<path d="M21.6881 13.2677V14.3742L17.6692 23.6611H15.4992L19.518 14.8739H14.3427V13.2677H21.6881Z" fill="#F24822"/>
<path fill-rule="evenodd" clip-rule="evenodd" d="M20.7145 30.0521C18.761 30.0822 18.3727 32.3062 18.3727 32.3062C18.3727 32.3062 17.9219 30.0822 15.9685 30.0521C14.015 30.0221 12.8128 31.7351 13.474 33.5384C14.1352 35.3415 14.7939 35.7473 15.832 37.0546C16.87 38.362 18.3802 40.6235 18.3727 41.1569C18.3652 40.6235 19.8129 38.362 20.851 37.0546C21.889 35.7473 22.5478 35.3415 23.209 33.5384C23.8701 31.7351 22.668 30.0221 20.7145 30.0521Z" fill="#F24822"/>
<defs>
<filter id="filter0_d_45_946" x="0.91644" y="0.8133" width="62.4264" height="84.4264" filterUnits="userSpaceOnUse" color-interpolation-filters="sRGB">
<feFlood flood-opacity="0" result="BackgroundImageFix"/>
<feColorMatrix in="SourceAlpha" type="matrix" values="0 0 0 0 0 0 0 0 0 0 0 0 0 0 0 0 0 0 127 0" result="hardAlpha"/>
<feOffset dy="0.913706"/>
<feGaussianBlur stdDeviation="3.1066"/>
<feColorMatrix type="matrix" values="0 0 0 0 0 0 0 0 0 0 0 0 0 0 0 0 0 0 0.1 0"/>
<feBlend mode="normal" in2="BackgroundImageFix" result="effect1_dropShadow_45_946"/>
<feBlend mode="normal" in="SourceGraphic" in2="effect1_dropShadow_45_946" result="shape"/>
</filter>
</defs>
</svg>
