<svg width="24" height="24" viewBox="0 0 24 24" fill="none" xmlns="http://www.w3.org/2000/svg">
<path opacity="0.2" d="M20.2439 6.90974L12.3689 2.45866C12.2563 2.39502 12.1292 2.36157 11.9999 2.36157C11.8705 2.36157 11.7434 2.39502 11.6308 2.45866L3.75583 6.90974C3.64021 6.9751 3.54402 7.06998 3.47708 7.1847C3.41015 7.29941 3.37488 7.42985 3.37488 7.56266V16.4375C3.37488 16.5703 3.41015 16.7007 3.47708 16.8154C3.54402 16.9301 3.64021 17.025 3.75583 17.0904L11.6308 21.5415C11.7434 21.6051 11.8705 21.6386 11.9999 21.6386C12.1292 21.6386 12.2563 21.6051 12.3689 21.5415L20.2439 17.0904C20.3595 17.025 20.4557 16.9301 20.5227 16.8154C20.5896 16.7007 20.6249 16.5703 20.6249 16.4375V7.56266C20.6249 7.42985 20.5896 7.29941 20.5227 7.1847C20.4557 7.06998 20.3596 6.9751 20.2439 6.90974ZM11.9999 15.3751C11.3324 15.3751 10.6798 15.1771 10.1248 14.8063C9.56981 14.4354 9.13723 13.9083 8.88178 13.2916C8.62634 12.6749 8.5595 11.9963 8.68973 11.3416C8.81995 10.6869 9.14139 10.0856 9.61339 9.61358C10.0854 9.14157 10.6868 8.82014 11.3414 8.68991C11.9961 8.55969 12.6747 8.62652 13.2914 8.88197C13.9081 9.13741 14.4352 9.57 14.8061 10.125C15.1769 10.68 15.3749 11.3326 15.3749 12.0001C15.3749 12.4433 15.2876 12.8821 15.118 13.2916C14.9484 13.7011 14.6998 14.0732 14.3864 14.3865C14.073 14.6999 13.7009 14.9485 13.2914 15.1182C12.882 15.2878 12.4431 15.3751 11.9999 15.3751Z" fill="white" fill-opacity="0.9"/>
<path d="M20.6249 16.4375V7.56266C20.6249 7.42984 20.5896 7.29941 20.5227 7.18469C20.4557 7.06998 20.3595 6.97509 20.2439 6.90974L12.3689 2.45865C12.2563 2.39501 12.1292 2.36157 11.9999 2.36157C11.8706 2.36157 11.7434 2.39501 11.6308 2.45865L3.75584 6.90974C3.64021 6.97509 3.54401 7.06998 3.47708 7.18469C3.41015 7.29941 3.37488 7.42984 3.37488 7.56266V16.4375C3.37488 16.5703 3.41015 16.7007 3.47708 16.8154C3.54401 16.9301 3.64021 17.025 3.75584 17.0904L11.6308 21.5415C11.7434 21.6051 11.8706 21.6385 11.9999 21.6385C12.1292 21.6385 12.2563 21.6051 12.3689 21.5415L20.2439 17.0904C20.3595 17.025 20.4557 16.9301 20.5227 16.8154C20.5896 16.7007 20.6249 16.5703 20.6249 16.4375V16.4375Z" stroke="white" stroke-opacity="0.9" stroke-width="1.5" stroke-linecap="round" stroke-linejoin="round"/>
<path d="M11.9999 15.375C13.8638 15.375 15.3749 13.864 15.3749 12C15.3749 10.136 13.8638 8.625 11.9999 8.625C10.1359 8.625 8.62488 10.136 8.62488 12C8.62488 13.864 10.1359 15.375 11.9999 15.375Z" stroke="white" stroke-opacity="0.9" stroke-width="1.5" stroke-linecap="round" stroke-linejoin="round"/>
</svg>
