<svg width="64" height="86" viewBox="0 0 64 86" fill="none" xmlns="http://www.w3.org/2000/svg">
<g filter="url(#filter0_d_45_970)">
<rect x="7" y="6" width="50" height="72" rx="3.65482" fill="#F2F2F2"/>
<rect x="7.09137" y="6.09137" width="49.8173" height="71.8173" rx="3.56345" stroke="#D2D2D2" stroke-width="0.182741"/>
</g>
<path d="M19.8024 13.0479H20.1022V14.6897H19.9809C19.4384 14.6897 18.9553 14.7706 18.5318 14.9324C18.1083 15.0942 17.749 15.325 17.4539 15.6248C17.1636 15.9198 16.9399 16.2768 16.7829 16.6955C16.6306 17.1143 16.5545 17.5831 16.5545 18.1018V19.8293C16.5545 20.2005 16.5902 20.5288 16.6616 20.8144C16.7377 21.0951 16.8448 21.3307 16.9828 21.5211C17.1255 21.7067 17.2921 21.847 17.4825 21.9422C17.6728 22.0326 17.887 22.0778 18.1249 22.0778C18.3486 22.0778 18.5508 22.0303 18.7317 21.9351C18.9173 21.8399 19.0743 21.7067 19.2028 21.5353C19.336 21.3593 19.436 21.1546 19.5026 20.9214C19.574 20.6835 19.6097 20.4241 19.6097 20.1434C19.6097 19.8626 19.574 19.6032 19.5026 19.3653C19.436 19.1273 19.336 18.9227 19.2028 18.7514C19.0695 18.5753 18.9077 18.4397 18.7174 18.3445C18.527 18.2493 18.3129 18.2017 18.0749 18.2017C17.7513 18.2017 17.4658 18.2779 17.2183 18.4302C16.9756 18.5777 16.7853 18.768 16.6473 19.0012C16.5093 19.2344 16.4355 19.4795 16.426 19.7365L15.805 19.3367C15.8192 18.9703 15.8954 18.6229 16.0334 18.2945C16.1761 17.9662 16.3713 17.6759 16.6187 17.4237C16.8709 17.1667 17.1731 16.9668 17.5253 16.824C17.8774 16.6765 18.2748 16.6027 18.7174 16.6027C19.2028 16.6027 19.6287 16.6955 19.9951 16.8811C20.3663 17.0667 20.6757 17.3213 20.9231 17.6449C21.1706 17.9685 21.3562 18.3421 21.4799 18.7657C21.6037 19.1892 21.6655 19.6413 21.6655 20.1219C21.6655 20.6264 21.5822 21.0951 21.4157 21.5282C21.2539 21.9613 21.0183 22.3396 20.709 22.6632C20.4044 22.9868 20.038 23.239 19.6097 23.4198C19.1814 23.6007 18.7007 23.6911 18.1677 23.6911C17.6157 23.6911 17.1136 23.5912 16.6616 23.3913C16.2142 23.1867 15.8287 22.9011 15.5051 22.5347C15.1815 22.1683 14.9317 21.7328 14.7556 21.2284C14.5843 20.7239 14.4986 20.1719 14.4986 19.5723V18.7728C14.4986 17.9352 14.62 17.1691 14.8627 16.4743C15.1102 15.7747 15.4647 15.1703 15.9263 14.6611C16.3879 14.1472 16.9447 13.7498 17.5967 13.469C18.2486 13.1882 18.9839 13.0479 19.8024 13.0479Z" fill="#F24822"/>
<path fill-rule="evenodd" clip-rule="evenodd" d="M13.0728 34.6223L18.4223 40.1417L23.7718 34.6223L18.4223 29.103L13.0728 34.6223Z" fill="#F24822"/>
<defs>
<filter id="filter0_d_45_970" x="0.786801" y="0.700507" width="62.4264" height="84.4264" filterUnits="userSpaceOnUse" color-interpolation-filters="sRGB">
<feFlood flood-opacity="0" result="BackgroundImageFix"/>
<feColorMatrix in="SourceAlpha" type="matrix" values="0 0 0 0 0 0 0 0 0 0 0 0 0 0 0 0 0 0 127 0" result="hardAlpha"/>
<feOffset dy="0.913706"/>
<feGaussianBlur stdDeviation="3.1066"/>
<feColorMatrix type="matrix" values="0 0 0 0 0 0 0 0 0 0 0 0 0 0 0 0 0 0 0.1 0"/>
<feBlend mode="normal" in2="BackgroundImageFix" result="effect1_dropShadow_45_970"/>
<feBlend mode="normal" in="SourceGraphic" in2="effect1_dropShadow_45_970" result="shape"/>
</filter>
</defs>
</svg>
