<svg width="64" height="86" viewBox="0 0 64 86" fill="none" xmlns="http://www.w3.org/2000/svg">
<g filter="url(#filter0_d_45_938)">
<rect x="7" y="6" width="50" height="72" rx="3.65482" fill="#F2F2F2"/>
<rect x="7.09137" y="6.09137" width="49.8173" height="71.8173" rx="3.56345" stroke="#D2D2D2" stroke-width="0.182741"/>
</g>
<path d="M21.7797 19.6651V21.2784H14.2916L14.1917 20.0291L18.5247 13.1549H20.1593L18.389 16.1173L16.2333 19.6651H21.7797ZM20.6019 13.1549V23.5483H18.5461V13.1549H20.6019Z" fill="black"/>
<path fill-rule="evenodd" clip-rule="evenodd" d="M20.75 37.4286C22.6301 37.4529 23.7868 36.0694 23.1506 34.6131C22.5144 33.1567 21.8801 32.8291 20.8814 31.7733C19.8822 30.7175 18.4293 28.891 18.4362 28.4602C18.4435 28.891 17.0504 30.7175 16.0513 31.7733C15.0526 32.8291 14.4188 33.1567 13.7821 34.6131C13.1459 36.0694 14.303 37.4529 16.1827 37.4286C17.4733 37.4119 18.0541 36.5604 18.291 36.028L18.291 36.7248C18.291 36.7248 17.8789 39.238 14.9711 39.5132L14.5076 39.5132L14.5076 39.9048L22.4256 39.9048L22.4256 39.5132L21.9615 39.5132C19.0542 39.238 18.6417 36.7248 18.6417 36.7248L18.6417 36.1195C18.9208 36.6525 19.531 37.4129 20.75 37.4286Z" fill="#1A1919"/>
<defs>
<filter id="filter0_d_45_938" x="0.786801" y="0.700507" width="62.4264" height="84.4264" filterUnits="userSpaceOnUse" color-interpolation-filters="sRGB">
<feFlood flood-opacity="0" result="BackgroundImageFix"/>
<feColorMatrix in="SourceAlpha" type="matrix" values="0 0 0 0 0 0 0 0 0 0 0 0 0 0 0 0 0 0 127 0" result="hardAlpha"/>
<feOffset dy="0.913706"/>
<feGaussianBlur stdDeviation="3.1066"/>
<feColorMatrix type="matrix" values="0 0 0 0 0 0 0 0 0 0 0 0 0 0 0 0 0 0 0.1 0"/>
<feBlend mode="normal" in2="BackgroundImageFix" result="effect1_dropShadow_45_938"/>
<feBlend mode="normal" in="SourceGraphic" in2="effect1_dropShadow_45_938" result="shape"/>
</filter>
</defs>
</svg>
