<svg width="63" height="86" viewBox="0 0 63 86" fill="none" xmlns="http://www.w3.org/2000/svg">
<g filter="url(#filter0_d_45_961)">
<rect x="6.74329" y="6.11279" width="50" height="72" rx="3.65482" fill="#F2F2F2"/>
<rect x="6.83466" y="6.20416" width="49.8173" height="71.8173" rx="3.56345" stroke="#D2D2D2" stroke-width="0.182741"/>
</g>
<path d="M19.2602 22.1193L22.0727 24.3464L20.7235 25.5171L17.9539 23.2899L19.2602 22.1193ZM22.1441 18.2217V18.7143C22.1441 19.5042 22.037 20.2133 21.8228 20.8415C21.6134 21.4697 21.3112 22.005 20.9163 22.4476C20.5213 22.8854 20.0549 23.2209 19.5171 23.4541C18.9794 23.6873 18.3822 23.8039 17.7254 23.8039C17.0735 23.8039 16.4762 23.6873 15.9337 23.4541C15.3912 23.2209 14.9224 22.8854 14.5275 22.4476C14.1325 22.005 13.8255 21.4697 13.6066 20.8415C13.3925 20.2133 13.2854 19.5042 13.2854 18.7143V18.2217C13.2854 17.427 13.3925 16.7179 13.6066 16.0945C13.8255 15.4663 14.1301 14.931 14.5203 14.4884C14.9105 14.0458 15.3769 13.7079 15.9194 13.4747C16.4619 13.2416 17.0592 13.125 17.7112 13.125C18.3679 13.125 18.9651 13.2416 19.5029 13.4747C20.0454 13.7079 20.5141 14.0458 20.9091 14.4884C21.3041 14.931 21.6087 15.4663 21.8228 16.0945C22.037 16.7179 22.1441 17.427 22.1441 18.2217ZM19.9811 18.7143V18.2075C19.9811 17.6554 19.9288 17.17 19.8241 16.7512C19.7242 16.3325 19.5766 15.9803 19.3815 15.6948C19.1912 15.4092 18.9556 15.1951 18.6748 15.0523C18.3941 14.9048 18.0728 14.831 17.7112 14.831C17.3495 14.831 17.0283 14.9048 16.7475 15.0523C16.4667 15.1951 16.2311 15.4092 16.0408 15.6948C15.8504 15.9803 15.7053 16.3325 15.6053 16.7512C15.5054 17.17 15.4554 17.6554 15.4554 18.2075V18.7143C15.4554 19.2615 15.5054 19.747 15.6053 20.1705C15.7053 20.5893 15.8504 20.9438 16.0408 21.2341C16.2359 21.5196 16.4738 21.7362 16.7546 21.8837C17.0401 22.0312 17.3638 22.105 17.7254 22.105C18.0871 22.105 18.4059 22.0312 18.682 21.8837C18.9627 21.7362 19.1983 21.5196 19.3887 21.2341C19.5838 20.9438 19.7313 20.5893 19.8312 20.1705C19.9312 19.747 19.9811 19.2615 19.9811 18.7143Z" fill="#F24822"/>
<path fill-rule="evenodd" clip-rule="evenodd" d="M20.3282 30.0521C18.3747 30.0822 17.9863 32.3062 17.9863 32.3062C17.9863 32.3062 17.5356 30.0822 15.5821 30.0521C13.6286 30.0221 12.4264 31.7351 13.0876 33.5384C13.7488 35.3415 14.4076 35.7473 15.4457 37.0546C16.4837 38.362 17.9939 40.6235 17.9863 41.1569C17.9789 40.6235 19.4265 38.362 20.4646 37.0546C21.5027 35.7473 22.1615 35.3415 22.8226 33.5384C23.4838 31.7351 22.2817 30.0221 20.3282 30.0521Z" fill="#F24822"/>
<defs>
<filter id="filter0_d_45_961" x="0.530087" y="0.8133" width="62.4264" height="84.4264" filterUnits="userSpaceOnUse" color-interpolation-filters="sRGB">
<feFlood flood-opacity="0" result="BackgroundImageFix"/>
<feColorMatrix in="SourceAlpha" type="matrix" values="0 0 0 0 0 0 0 0 0 0 0 0 0 0 0 0 0 0 127 0" result="hardAlpha"/>
<feOffset dy="0.913706"/>
<feGaussianBlur stdDeviation="3.1066"/>
<feColorMatrix type="matrix" values="0 0 0 0 0 0 0 0 0 0 0 0 0 0 0 0 0 0 0.1 0"/>
<feBlend mode="normal" in2="BackgroundImageFix" result="effect1_dropShadow_45_961"/>
<feBlend mode="normal" in="SourceGraphic" in2="effect1_dropShadow_45_961" result="shape"/>
</filter>
</defs>
</svg>
