<svg width="64" height="86" viewBox="0 0 64 86" fill="none" xmlns="http://www.w3.org/2000/svg">
<g filter="url(#filter0_d_45_955)">
<rect x="7.09778" y="6.11279" width="50" height="72" rx="3.65482" fill="#F2F2F2"/>
<rect x="7.18915" y="6.20416" width="49.8173" height="71.8173" rx="3.56345" stroke="#D2D2D2" stroke-width="0.182741"/>
</g>
<path d="M15.4102 13.2463V23.6611H13.3543V15.6162L10.8845 16.4015V14.7811L15.1889 13.2463H15.4102ZM25.7893 17.5507V19.3496C25.7893 20.13 25.706 20.8034 25.5395 21.3697C25.3729 21.9313 25.1326 22.3929 24.8185 22.7546C24.5092 23.1115 24.1404 23.3756 23.7121 23.5469C23.2838 23.7182 22.8079 23.8039 22.2844 23.8039C21.8656 23.8039 21.4754 23.7516 21.1137 23.6469C20.752 23.5374 20.426 23.3685 20.1358 23.14C19.8502 22.9116 19.6028 22.6237 19.3934 22.2763C19.1887 21.9241 19.0317 21.5054 18.9222 21.02C18.8128 20.5345 18.7581 19.9778 18.7581 19.3496V17.5507C18.7581 16.7703 18.8413 16.1016 19.0079 15.5449C19.1792 14.9833 19.4195 14.5241 19.7289 14.1672C20.043 13.8102 20.4142 13.5485 20.8425 13.3819C21.2708 13.2106 21.7466 13.125 22.2701 13.125C22.6889 13.125 23.0767 13.1797 23.4337 13.2891C23.7953 13.3938 24.1213 13.558 24.4116 13.7817C24.7019 14.0054 24.9494 14.2933 25.154 14.6454C25.3586 14.9928 25.5157 15.4092 25.6251 15.8946C25.7346 16.3753 25.7893 16.9273 25.7893 17.5507ZM23.7263 19.6208V17.2723C23.7263 16.8964 23.7049 16.568 23.6621 16.2872C23.624 16.0065 23.5645 15.7685 23.4836 15.5734C23.4027 15.3735 23.3028 15.2117 23.1838 15.088C23.0649 14.9643 22.9292 14.8739 22.7769 14.8167C22.6247 14.7596 22.4557 14.7311 22.2701 14.7311C22.0369 14.7311 21.8299 14.7763 21.6491 14.8667C21.473 14.9571 21.3231 15.1023 21.1994 15.3022C21.0756 15.4973 20.9805 15.759 20.9138 16.0874C20.852 16.411 20.821 16.806 20.821 17.2723V19.6208C20.821 19.9968 20.8401 20.3275 20.8781 20.6131C20.921 20.8986 20.9828 21.1437 21.0637 21.3483C21.1494 21.5482 21.2493 21.7124 21.3635 21.8409C21.4825 21.9646 21.6181 22.055 21.7704 22.1121C21.9275 22.1692 22.0988 22.1978 22.2844 22.1978C22.5128 22.1978 22.7151 22.1526 22.8912 22.0621C23.072 21.967 23.2243 21.8194 23.348 21.6196C23.4765 21.4149 23.5717 21.1484 23.6335 20.8201C23.6954 20.4917 23.7263 20.092 23.7263 19.6208Z" fill="#F24822"/>
<path fill-rule="evenodd" clip-rule="evenodd" d="M20.6826 30.0521C18.7292 30.0822 18.3408 32.3062 18.3408 32.3062C18.3408 32.3062 17.8901 30.0822 15.9366 30.0521C13.9831 30.0221 12.7809 31.7351 13.4421 33.5384C14.1033 35.3415 14.7621 35.7473 15.8001 37.0546C16.8382 38.362 18.3484 40.6235 18.3408 41.1569C18.3334 40.6235 19.781 38.362 20.8191 37.0546C21.8572 35.7473 22.5159 35.3415 23.1771 33.5384C23.8383 31.7351 22.6362 30.0221 20.6826 30.0521Z" fill="#F24822"/>
<defs>
<filter id="filter0_d_45_955" x="0.884579" y="0.8133" width="62.4264" height="84.4264" filterUnits="userSpaceOnUse" color-interpolation-filters="sRGB">
<feFlood flood-opacity="0" result="BackgroundImageFix"/>
<feColorMatrix in="SourceAlpha" type="matrix" values="0 0 0 0 0 0 0 0 0 0 0 0 0 0 0 0 0 0 127 0" result="hardAlpha"/>
<feOffset dy="0.913706"/>
<feGaussianBlur stdDeviation="3.1066"/>
<feColorMatrix type="matrix" values="0 0 0 0 0 0 0 0 0 0 0 0 0 0 0 0 0 0 0.1 0"/>
<feBlend mode="normal" in2="BackgroundImageFix" result="effect1_dropShadow_45_955"/>
<feBlend mode="normal" in="SourceGraphic" in2="effect1_dropShadow_45_955" result="shape"/>
</filter>
</defs>
</svg>
