<svg width="40" height="26" viewBox="0 0 40 26" fill="none" xmlns="http://www.w3.org/2000/svg">
<path d="M34.8371 25.1357L22.8944 22.5972C22.3758 22.487 22.0449 21.9773 22.1551 21.4588L26.1585 2.62424C26.2687 2.10573 26.7783 1.77475 27.2969 1.88502L39.2396 4.42353C39.7581 4.53373 40.0891 5.04338 39.9789 5.56189L35.9755 24.3965C35.8652 24.9149 35.3555 25.2459 34.8371 25.1357Z" fill="url(#paint0_linear_254_988)"/>
<path d="M26.7734 6.97065C26.7756 6.96046 26.7829 6.9425 26.7955 6.91669L28.405 4.00807C28.4502 3.92893 28.5262 3.87661 28.6329 3.85128C28.7395 3.82603 28.8557 3.82673 28.9815 3.8534C29.1072 3.88014 29.2137 3.92673 29.3008 3.99324C29.3879 4.05975 29.436 4.13842 29.4452 4.22909L29.7375 7.54195C29.7385 7.57065 29.738 7.59003 29.7358 7.60022C29.7169 7.68869 29.6454 7.7534 29.5213 7.79442C29.397 7.83552 29.2755 7.84344 29.1565 7.81811C29.0103 7.78705 28.934 7.71936 28.9278 7.61497L28.89 6.94077L27.8141 6.71207L27.5053 7.31254C27.457 7.4054 27.3599 7.43622 27.2138 7.40516C27.0947 7.37983 26.9869 7.3232 26.8902 7.23512C26.7936 7.14728 26.7546 7.05905 26.7734 6.97065ZM28.1074 6.13513L28.8518 6.29332L28.77 4.84775L28.1074 6.13513Z" fill="#9B62CD"/>
<path d="M27.8613 2.75411C27.3427 2.64391 26.8331 2.97489 26.7229 3.49332L22.7195 22.3279C22.7049 22.3966 22.6986 22.4652 22.6989 22.5327C22.7605 22.5605 22.8256 22.5825 22.8944 22.5971L34.8371 25.1356C35.3556 25.2458 35.8653 24.9148 35.9755 24.3963L39.9788 5.56179C39.9934 5.49301 39.9998 5.42454 39.9995 5.35701C39.9368 5.32861 39.8713 5.307 39.804 5.29254L27.8613 2.75411Z" fill="url(#paint1_linear_254_988)"/>
<path d="M39.2396 4.42353L38.9807 4.36847L35.0323 22.9441C34.9221 23.4626 34.4125 23.7936 33.894 23.6834L22.2101 21.1999L22.1551 21.4588C22.0449 21.9773 22.3758 22.487 22.8943 22.5972L34.837 25.1357C35.3555 25.2459 35.8652 24.9149 35.9754 24.3964L39.9787 5.56188C40.089 5.04337 39.758 4.53372 39.2396 4.42353Z" fill="url(#paint2_linear_254_988)"/>
<path d="M31.4615 9.37859L28.1031 12.5457C28.018 12.6259 27.9594 12.7302 27.9351 12.8446C27.9108 12.9591 27.9219 13.0782 27.967 13.1861L29.7468 17.4453C29.9019 17.8163 30.3799 17.918 30.6725 17.642L34.0308 14.475C34.1159 14.3947 34.1745 14.2905 34.1989 14.176C34.2232 14.0616 34.2121 13.9425 34.167 13.8346L32.3871 9.57538C32.2321 9.2044 31.754 9.10275 31.4615 9.37859Z" fill="url(#paint3_linear_254_988)"/>
<path d="M32.5646 10C32.4359 9.69225 32.0456 9.5724 31.7835 9.77876C31.7697 9.78963 31.7564 9.80111 31.7437 9.81319L28.6186 12.7603C28.465 12.9052 28.3591 13.0935 28.3152 13.3C28.2713 13.5066 28.2914 13.7216 28.3729 13.9165L29.953 17.6979C30.1656 17.8427 30.4653 17.8374 30.6725 17.6421L34.0308 14.475C34.1159 14.3947 34.1746 14.2904 34.1989 14.176C34.2232 14.0616 34.2121 13.9425 34.167 13.8345L32.5646 10Z" fill="url(#paint4_linear_254_988)"/>
<path d="M31.5693 2.79309L27.2969 1.88494C26.7783 1.77474 26.2687 2.10572 26.1585 2.62415L22.1551 21.4588C22.0449 21.9773 22.3758 22.487 22.8943 22.5972L34.837 25.1357C35.3555 25.2459 35.8652 24.9149 35.9754 24.3964L38.99 10.2139L31.5693 2.79309Z" fill="url(#paint5_linear_254_988)"/>
<path d="M28.5499 23.1837L16.4072 21.9074C15.8801 21.8521 15.4976 21.3797 15.553 20.8526L17.5657 1.70273C17.6211 1.17559 18.0934 0.793157 18.6206 0.84853L30.7632 2.12477C31.2904 2.18014 31.6728 2.65245 31.6174 3.17959L29.6047 22.3295C29.5493 22.8567 29.077 23.2391 28.5499 23.1837Z" fill="url(#paint6_linear_254_988)"/>
<path d="M18.6316 5.96108C18.6327 5.95073 18.6381 5.93214 18.6479 5.90516L19.9445 2.84422C19.9813 2.76077 20.0514 2.70085 20.1547 2.66453C20.2581 2.62822 20.3737 2.61677 20.5016 2.63026C20.6294 2.64367 20.7402 2.67897 20.8338 2.73591C20.9274 2.79293 20.9835 2.8661 21.002 2.95536L21.6391 6.21951C21.6431 6.24799 21.6445 6.26728 21.6435 6.27763C21.634 6.36751 21.5696 6.43944 21.4504 6.49324C21.3312 6.54712 21.2111 6.56767 21.0901 6.55497C20.9415 6.53936 20.8586 6.47999 20.8416 6.37685L20.7334 5.71034L19.6396 5.59536L19.3952 6.22485C19.3569 6.32218 19.2636 6.36297 19.1151 6.34736C18.994 6.33465 18.8809 6.28955 18.7755 6.21206C18.6701 6.13465 18.6221 6.05097 18.6316 5.96108ZM19.871 4.99065L20.6278 5.07018L20.3955 3.64108L19.871 4.99065Z" fill="#9B62CD"/>
<path d="M19.2728 1.65395C18.7456 1.59858 18.2733 1.98101 18.218 2.50815L16.2053 21.658C16.1979 21.7279 16.1987 21.7967 16.2061 21.8638C16.2703 21.885 16.3374 21.9001 16.4073 21.9074L28.55 23.1837C29.0771 23.2391 29.5494 22.8567 29.6048 22.3295L31.6175 3.17968C31.6249 3.10979 31.624 3.04101 31.6166 2.97387C31.5513 2.95215 31.4839 2.93753 31.4154 2.93026L19.2728 1.65395Z" fill="url(#paint7_linear_254_988)"/>
<path d="M30.7632 2.12485L30.4999 2.09717L28.5148 20.9838C28.4594 21.5109 27.9871 21.8934 27.46 21.8379L15.5806 20.5894L15.5529 20.8526C15.4976 21.3798 15.88 21.8521 16.4071 21.9074L28.5498 23.1837C29.0769 23.2391 29.5493 22.8567 29.6046 22.3295L31.6173 3.17968C31.6729 2.65246 31.2904 2.18023 30.7632 2.12485Z" fill="url(#paint8_linear_254_988)"/>
<path d="M26.0827 10.7371C26.1258 10.5938 26.1555 10.4467 26.1713 10.2978C26.3094 8.98385 25.3562 7.80675 24.0422 7.66864C22.7282 7.53052 21.5511 8.48377 21.413 9.79773C21.3975 9.94662 21.3959 10.0966 21.4083 10.2458C20.1946 10.2401 19.1503 11.1552 19.0207 12.3881C18.8826 13.702 19.8358 14.8791 21.1498 15.0173C21.6977 15.0756 22.2488 14.9423 22.7094 14.6399C22.5232 15.1013 22.2682 15.4912 21.9825 15.7532C21.85 15.8747 21.8623 16.2305 21.9994 16.2449L24.2572 16.4823C24.3943 16.4967 24.4802 16.1511 24.3759 16.0048C24.1474 15.6841 23.9658 15.2392 23.8709 14.7383C24.2612 15.1448 24.7829 15.3998 25.3434 15.458C26.6574 15.5962 27.8345 14.6429 27.9726 13.329C28.1023 12.0962 27.2711 10.9839 26.0827 10.7371Z" fill="url(#paint9_linear_254_988)"/>
<path d="M27.9726 13.3286C27.8345 14.643 26.6574 15.5961 25.3438 15.458C24.7832 15.4 24.2613 15.1448 23.8712 14.738C23.9661 15.2391 24.1471 15.6842 24.376 16.0049C24.4802 16.1513 24.394 16.4964 24.257 16.482L21.9996 16.2447C21.8627 16.2303 21.85 15.8748 21.9824 15.7533C22.1031 15.6426 22.2184 15.5094 22.3245 15.3571C22.4712 15.1493 22.6019 14.9064 22.7093 14.6401C22.2487 14.9425 21.6974 15.0758 21.1494 15.0172L21.1325 15.0154C20.0401 14.8929 19.2382 13.9023 19.3452 12.8083L19.347 12.7906C19.4765 11.5578 20.5209 10.643 21.7341 10.6486C21.7218 10.4994 21.7234 10.3493 21.7388 10.2004C21.8769 8.88683 23.054 7.93295 24.3683 8.07106C24.4047 8.07491 24.4408 8.07953 24.4765 8.08487C25.4955 8.23859 26.242 9.16055 26.1804 10.1891C26.1691 10.3749 26.1363 10.5588 26.0829 10.7371C26.2184 10.7657 26.3497 10.8053 26.4746 10.8555C26.9393 11.0387 27.3346 11.3635 27.6045 11.7839C27.9007 12.2414 28.0306 12.7867 27.9726 13.3286Z" fill="url(#paint10_linear_254_988)"/>
<path d="M16.4072 21.9074L28.5499 23.1837C29.077 23.2391 29.5493 22.8566 29.6047 22.3295L30.911 9.90109L22.2736 1.26368C22.2657 1.25215 22.2573 1.24109 22.2489 1.22995L19.9997 0.993561L17.7516 1.22987C17.648 1.3678 17.5838 1.53125 17.5657 1.70282L15.553 20.8527C15.4976 21.3798 15.8801 21.8521 16.4072 21.9074Z" fill="url(#paint11_linear_254_988)"/>
<path d="M23.593 21.9074L11.4504 23.1837C10.9233 23.2392 10.451 22.8568 10.3956 22.3296L8.38259 3.17975C8.32714 2.65261 8.70957 2.1803 9.23678 2.12492L21.3794 0.848531C21.9065 0.793158 22.3788 1.17551 22.4342 1.70273L24.4472 20.8525C24.5027 21.3797 24.1202 21.8519 23.593 21.9074Z" fill="url(#paint12_linear_254_988)"/>
<path d="M10.3105 7.12346C10.3094 7.1131 10.3108 7.09381 10.3149 7.06534L10.9467 3.80173C10.9653 3.71247 11.0214 3.6393 11.115 3.58228C11.2085 3.52526 11.3193 3.49004 11.4472 3.47663C11.575 3.46322 11.6907 3.47459 11.7941 3.51091C11.8975 3.54722 11.9675 3.60714 12.0043 3.69059L13.3061 6.75098C13.3159 6.77797 13.3214 6.79655 13.3225 6.80691C13.3319 6.89679 13.2839 6.98048 13.1785 7.05789C13.0731 7.13538 12.9598 7.18047 12.839 7.19318C12.6904 7.20879 12.5969 7.168 12.5588 7.07067L12.3144 6.44118L11.2206 6.55616L11.1125 7.22267C11.0953 7.32589 11.0125 7.38518 10.8639 7.40079C10.7429 7.4135 10.6228 7.39295 10.5036 7.33906C10.3843 7.28518 10.32 7.21334 10.3105 7.12346ZM11.321 5.91655L12.0779 5.83702L11.5534 4.48746L11.321 5.91655Z" fill="#9B62CD"/>
<path d="M10.0421 2.77708C9.51498 2.83253 9.13255 3.30476 9.18792 3.8319L11.2009 22.9817C11.2083 23.0516 11.2235 23.1187 11.2446 23.1829C11.3117 23.1903 11.3805 23.1911 11.4504 23.1837L23.593 21.9074C24.1202 21.852 24.5026 21.3797 24.4472 20.8525L22.4342 1.70273C22.4269 1.63431 22.4122 1.56687 22.3906 1.50155C22.3222 1.49388 22.2532 1.49359 22.1848 1.50069L10.0421 2.77708Z" fill="url(#paint13_linear_254_988)"/>
<path d="M17.3166 16.1153L20.7189 11.9777C21.688 10.7991 21.5182 9.05819 20.3397 8.08901C19.1611 7.11992 17.4201 7.28972 16.451 8.46823L16.0787 8.92101L15.6259 8.5487C14.4473 7.5796 12.7063 7.74941 11.7372 8.92792C10.7681 10.1064 10.9379 11.8474 12.1164 12.8165L16.254 16.2188C16.5761 16.4838 17.0518 16.4373 17.3166 16.1153Z" fill="url(#paint14_radial_254_988)"/>
<path d="M12.5223 13.1453L16.3162 16.2651C16.6348 16.4768 17.0684 16.4172 17.3166 16.1154L20.7189 11.9778C21.6373 10.8608 21.5322 9.23904 20.5155 8.24759C19.3498 7.47425 17.7647 7.693 16.8569 8.797L16.4846 9.24978L16.0812 8.9181L16.0787 8.92116L15.916 8.78743C14.7416 7.92045 13.0809 8.11614 12.1431 9.25669C11.174 10.4352 11.3438 12.1762 12.5223 13.1453Z" fill="url(#paint15_linear_254_988)"/>
<path d="M21.3794 0.848544L21.1161 0.87623L23.1014 19.7628C23.1569 20.29 22.7744 20.7623 22.2472 20.8176L10.3678 22.0664L10.3955 22.3296C10.451 22.8568 10.9232 23.2392 11.4504 23.1838L23.593 21.9074C24.1202 21.8521 24.5026 21.3798 24.4472 20.8526L22.4342 1.70282C22.3788 1.17552 21.9065 0.793093 21.3794 0.848544Z" fill="url(#paint16_linear_254_988)"/>
<path d="M12.7031 1.885L8.42031 2.79536C8.38171 2.91961 8.36887 3.05044 8.38258 3.17983L10.3956 22.3296C10.4511 22.8568 10.9233 23.2392 11.4504 23.1838L23.5931 21.9074C24.1202 21.852 24.5027 21.3798 24.4473 20.8526L23.534 12.1641L13.7558 2.38587C13.5629 2.00963 13.1365 1.79285 12.7031 1.885Z" fill="url(#paint17_linear_254_988)"/>
<path d="M17.1056 22.5972L5.1629 25.1357C4.64439 25.2459 4.13474 24.9149 4.02455 24.3964L0.021174 5.56189C-0.0890221 5.04338 0.241958 4.53373 0.76039 4.42354L12.7031 1.88503C13.2216 1.77483 13.7313 2.10581 13.8415 2.62424L17.8449 21.4588C17.9551 21.9773 17.6242 22.487 17.1056 22.5972Z" fill="url(#paint18_linear_254_988)"/>
<path d="M2.35075 9.28243C2.34855 9.27223 2.348 9.25286 2.34902 9.22415L2.63631 5.91231C2.64541 5.82164 2.69357 5.7429 2.78071 5.67647C2.86784 5.60996 2.97428 5.56337 3.10008 5.53662C3.2258 5.50988 3.34204 5.50917 3.44863 5.53451C3.55529 5.55984 3.63114 5.61215 3.67647 5.69129L5.29098 8.59882C5.30353 8.62462 5.31098 8.64251 5.3131 8.6527C5.33192 8.74117 5.29286 8.82941 5.19616 8.91741C5.09937 9.00549 4.99153 9.06219 4.87263 9.08745C4.72643 9.11851 4.62926 9.08768 4.58118 8.9949L4.27231 8.39443L3.19647 8.62313L3.15859 9.29733C3.15231 9.40172 3.07608 9.46941 2.92996 9.50047C2.8109 9.5258 2.68933 9.51788 2.56518 9.47678C2.44102 9.4356 2.36957 9.37082 2.35075 9.28243ZM3.22957 7.97647L3.97396 7.81827L3.3113 6.5309L3.22957 7.97647Z" fill="#9B62CD"/>
<path d="M1.62956 4.98793C1.11105 5.09813 0.780073 5.60777 0.890269 6.12628L4.89372 24.9609C4.90831 25.0297 4.93043 25.0948 4.95811 25.1563C5.02691 25.1568 5.09557 25.1499 5.1629 25.1357L17.1056 22.5972C17.6242 22.487 17.9551 21.9773 17.8449 21.4588L13.8415 2.62432C13.8271 2.55703 13.8055 2.49148 13.7771 2.42879C13.7083 2.42833 13.6396 2.43525 13.5723 2.44942L1.62956 4.98793Z" fill="url(#paint19_linear_254_988)"/>
<path d="M12.7031 1.88503L12.4442 1.94009L16.3926 20.5157C16.5028 21.0342 16.1718 21.5438 15.6534 21.654L3.96957 24.1375L4.02463 24.3964C4.13482 24.9149 4.64447 25.2459 5.16298 25.1356L17.1057 22.5971C17.6242 22.4869 17.9552 21.9773 17.8449 21.4588L13.8416 2.62424C13.7313 2.10581 13.2216 1.77483 12.7031 1.88503Z" fill="url(#paint20_linear_254_988)"/>
<path d="M12.4447 11.8607L8.4847 9.33122C8.33669 9.23668 8.15718 9.2048 7.98567 9.2426C7.81415 9.28041 7.66468 9.38479 7.57012 9.53279L5.04062 13.4928C4.32008 14.6208 4.65043 16.1192 5.77835 16.8398C6.79906 17.4918 8.12298 17.2832 8.89953 16.4019C8.85443 16.8482 8.73796 17.2511 8.56353 17.5598C8.47506 17.7162 8.5967 18.0509 8.73161 18.0223L10.9522 17.5503C11.0871 17.5217 11.0621 17.1664 10.9176 17.0595C10.6191 16.8384 10.3265 16.499 10.0885 16.086C11.1786 16.6128 12.5147 16.2533 13.1825 15.2078C13.903 14.0797 13.5727 12.5813 12.4447 11.8607Z" fill="url(#paint21_linear_254_988)"/>
<path d="M13.5105 13.3991C13.6382 13.9998 13.5393 14.6495 13.1825 15.2078C12.5144 16.2531 11.1782 16.6125 10.0884 16.0863C10.2076 16.2926 10.3399 16.4806 10.4802 16.6447C10.6205 16.8088 10.7688 16.9489 10.9177 17.0595C11.062 17.1666 11.0867 17.5214 10.952 17.55L8.73176 18.022C8.59701 18.0506 8.47521 17.7164 8.56352 17.5599C8.62901 17.4445 8.68635 17.3161 8.73513 17.1765L8.73498 17.1758C8.8156 16.9432 8.87145 16.6813 8.89984 16.402C8.54847 16.8014 8.08384 17.0625 7.5869 17.1682C7.04723 17.2835 6.48434 17.2106 5.99184 16.9616C5.99019 16.9613 5.98949 16.9614 5.99003 16.9605C5.04392 16.1944 4.80517 14.8248 5.47537 13.7752L8.00447 9.81522C8.09906 9.66715 8.24855 9.56269 8.42011 9.52478C8.59168 9.48686 8.77127 9.5186 8.91945 9.61302L12.5573 11.9374C13.0632 12.3008 13.3892 12.8286 13.5105 13.3991Z" fill="url(#paint22_linear_254_988)"/>
<defs>
<linearGradient id="paint0_linear_254_988" x1="29.7855" y1="11.5391" x2="44.9199" y2="34.8797" gradientUnits="userSpaceOnUse">
<stop stop-color="#E4F2FF"/>
<stop offset="1" stop-color="#B2CBFF"/>
</linearGradient>
<linearGradient id="paint1_linear_254_988" x1="31.4173" y1="14.022" x2="20.4815" y2="2.02925" gradientUnits="userSpaceOnUse">
<stop stop-color="white" stop-opacity="0"/>
<stop offset="1" stop-color="white"/>
</linearGradient>
<linearGradient id="paint2_linear_254_988" x1="35.3872" y1="15.1445" x2="64.6087" y2="8.4209" gradientUnits="userSpaceOnUse">
<stop stop-color="#3F3CED" stop-opacity="0"/>
<stop offset="0.28" stop-color="#3C3DE4" stop-opacity="0.28"/>
<stop offset="0.731" stop-color="#3541CC" stop-opacity="0.731"/>
<stop offset="1" stop-color="#2F43BB"/>
</linearGradient>
<linearGradient id="paint3_linear_254_988" x1="29.606" y1="11.8234" x2="33.1566" y2="15.9287" gradientUnits="userSpaceOnUse">
<stop stop-color="#FF819C"/>
<stop offset="0.27" stop-color="#FF7E9B"/>
<stop offset="0.483" stop-color="#FE7496"/>
<stop offset="0.678" stop-color="#FC638E"/>
<stop offset="0.859" stop-color="#FA4C84"/>
<stop offset="1" stop-color="#F83479"/>
</linearGradient>
<linearGradient id="paint4_linear_254_988" x1="30.9512" y1="12.6287" x2="28.8351" y2="4.11227" gradientUnits="userSpaceOnUse">
<stop stop-color="#FFD9A9" stop-opacity="0"/>
<stop offset="1" stop-color="#FCDBCB"/>
</linearGradient>
<linearGradient id="paint5_linear_254_988" x1="34.2791" y1="14.5707" x2="22.8749" y2="11.5366" gradientUnits="userSpaceOnUse">
<stop stop-color="#3F3CED" stop-opacity="0"/>
<stop offset="0.28" stop-color="#3C3DE4" stop-opacity="0.28"/>
<stop offset="0.731" stop-color="#3541CC" stop-opacity="0.731"/>
<stop offset="1" stop-color="#2F43BB"/>
</linearGradient>
<linearGradient id="paint6_linear_254_988" x1="22.1017" y1="10.2075" x2="39.6" y2="31.8317" gradientUnits="userSpaceOnUse">
<stop stop-color="#E4F2FF"/>
<stop offset="1" stop-color="#B2CBFF"/>
</linearGradient>
<linearGradient id="paint7_linear_254_988" x1="23.9849" y1="12.5057" x2="11.852" y2="1.72631" gradientUnits="userSpaceOnUse">
<stop stop-color="white" stop-opacity="0"/>
<stop offset="1" stop-color="white"/>
</linearGradient>
<linearGradient id="paint8_linear_254_988" x1="28.0506" y1="13.2056" x2="56.4055" y2="3.45469" gradientUnits="userSpaceOnUse">
<stop stop-color="#3F3CED" stop-opacity="0"/>
<stop offset="0.28" stop-color="#3C3DE4" stop-opacity="0.28"/>
<stop offset="0.731" stop-color="#3541CC" stop-opacity="0.731"/>
<stop offset="1" stop-color="#2F43BB"/>
</linearGradient>
<linearGradient id="paint9_linear_254_988" x1="22.171" y1="10.842" x2="25.0239" y2="14.3675" gradientUnits="userSpaceOnUse">
<stop stop-color="#9B62CD"/>
<stop offset="0.3" stop-color="#985DCB"/>
<stop offset="0.672" stop-color="#8F4EC7"/>
<stop offset="1" stop-color="#833AC1"/>
</linearGradient>
<linearGradient id="paint10_linear_254_988" x1="23.7886" y1="13.3038" x2="19.6522" y2="4.52593" gradientUnits="userSpaceOnUse">
<stop stop-color="#9B62CD" stop-opacity="0"/>
<stop offset="1" stop-color="#FF75C8"/>
</linearGradient>
<linearGradient id="paint11_linear_254_988" x1="26.6959" y1="12.0818" x2="16.4874" y2="12.1227" gradientUnits="userSpaceOnUse">
<stop stop-color="#3F3CED" stop-opacity="0"/>
<stop offset="0.28" stop-color="#3C3DE4" stop-opacity="0.28"/>
<stop offset="0.731" stop-color="#3541CC" stop-opacity="0.731"/>
<stop offset="1" stop-color="#2F43BB"/>
</linearGradient>
<linearGradient id="paint12_linear_254_988" x1="14.6038" y1="10.5345" x2="36.2281" y2="28.0331" gradientUnits="userSpaceOnUse">
<stop stop-color="#E4F2FF"/>
<stop offset="1" stop-color="#B2CBFF"/>
</linearGradient>
<linearGradient id="paint13_linear_254_988" x1="16.925" y1="12.3892" x2="2.81016" y2="4.37766" gradientUnits="userSpaceOnUse">
<stop stop-color="white" stop-opacity="0"/>
<stop offset="1" stop-color="white"/>
</linearGradient>
<radialGradient id="paint14_radial_254_988" cx="0" cy="0" r="1" gradientUnits="userSpaceOnUse" gradientTransform="translate(13.4223 8.50708) rotate(-5.98399) scale(8.27185 8.27185)">
<stop stop-color="#FF819C"/>
<stop offset="0.474" stop-color="#FF7F9B"/>
<stop offset="0.645" stop-color="#FE7898"/>
<stop offset="0.766" stop-color="#FD6D93"/>
<stop offset="0.865" stop-color="#FC5C8B"/>
<stop offset="0.948" stop-color="#FA4681"/>
<stop offset="1" stop-color="#F83479"/>
</radialGradient>
<linearGradient id="paint15_linear_254_988" x1="16.6857" y1="11.0456" x2="11.5893" y2="2.0029" gradientUnits="userSpaceOnUse">
<stop stop-color="#FFD9A9" stop-opacity="0"/>
<stop offset="1" stop-color="#FCDBCB"/>
</linearGradient>
<linearGradient id="paint16_linear_254_988" x1="21.047" y1="12.2255" x2="46.7431" y2="-3.22501" gradientUnits="userSpaceOnUse">
<stop stop-color="#3F3CED" stop-opacity="0"/>
<stop offset="0.28" stop-color="#3C3DE4" stop-opacity="0.28"/>
<stop offset="0.731" stop-color="#3541CC" stop-opacity="0.731"/>
<stop offset="1" stop-color="#2F43BB"/>
</linearGradient>
<linearGradient id="paint17_linear_254_988" x1="18.7529" y1="11.8217" x2="11.5723" y2="12.6823" gradientUnits="userSpaceOnUse">
<stop stop-color="#3F3CED" stop-opacity="0"/>
<stop offset="0.28" stop-color="#3C3DE4" stop-opacity="0.28"/>
<stop offset="0.731" stop-color="#3541CC" stop-opacity="0.731"/>
<stop offset="1" stop-color="#2F43BB"/>
</linearGradient>
<linearGradient id="paint18_linear_254_988" x1="6.97093" y1="12.2274" x2="30.3116" y2="27.3619" gradientUnits="userSpaceOnUse">
<stop stop-color="#E4F2FF"/>
<stop offset="1" stop-color="#B2CBFF"/>
</linearGradient>
<linearGradient id="paint19_linear_254_988" x1="9.47384" y1="13.8284" x2="-5.40349" y2="7.34123" gradientUnits="userSpaceOnUse">
<stop stop-color="white" stop-opacity="0"/>
<stop offset="1" stop-color="white"/>
</linearGradient>
<linearGradient id="paint20_linear_254_988" x1="13.5562" y1="13.2334" x2="37.4915" y2="-4.82769" gradientUnits="userSpaceOnUse">
<stop stop-color="#3F3CED" stop-opacity="0"/>
<stop offset="0.28" stop-color="#3C3DE4" stop-opacity="0.28"/>
<stop offset="0.731" stop-color="#3541CC" stop-opacity="0.731"/>
<stop offset="1" stop-color="#2F43BB"/>
</linearGradient>
<linearGradient id="paint21_linear_254_988" x1="7.09401" y1="12.78" x2="11.361" y2="16.0765" gradientUnits="userSpaceOnUse">
<stop stop-color="#9B62CD"/>
<stop offset="0.3" stop-color="#985DCB"/>
<stop offset="0.672" stop-color="#8F4EC7"/>
<stop offset="1" stop-color="#833AC1"/>
</linearGradient>
<linearGradient id="paint22_linear_254_988" x1="9.56644" y1="14.8416" x2="4.30436" y2="6.74988" gradientUnits="userSpaceOnUse">
<stop stop-color="#9B62CD" stop-opacity="0"/>
<stop offset="1" stop-color="#FF75C8"/>
</linearGradient>
</defs>
</svg>
