<svg width="64" height="86" viewBox="0 0 64 86" fill="none" xmlns="http://www.w3.org/2000/svg">
<g filter="url(#filter0_d_45_926)">
<rect x="7" y="6" width="50" height="72" rx="3.65482" fill="#F2F2F2"/>
<rect x="7.09137" y="6.09137" width="49.8173" height="71.8173" rx="3.56345" stroke="#D2D2D2" stroke-width="0.182741"/>
</g>
<path d="M18.2248 14.9324L15.3981 23.5483H13.1209L16.9828 13.1549H18.4319L18.2248 14.9324ZM20.5734 23.5483L17.7394 14.9324L17.511 13.1549H18.9744L22.8576 23.5483H20.5734ZM20.4449 19.6794V21.3569H14.9555V19.6794H20.4449Z" fill="#050505"/>
<path fill-rule="evenodd" clip-rule="evenodd" d="M21.0262 32.9155C20.7157 32.9155 20.4198 32.9833 20.15 33.1056C20.4033 32.7055 20.552 32.2209 20.552 31.6982C20.552 30.3267 19.5305 29.2148 18.2705 29.2148C17.0105 29.2148 15.9891 30.3267 15.9891 31.6982C15.9891 32.1958 16.1241 32.6589 16.3556 33.0474C16.1254 32.9623 15.8789 32.9155 15.6223 32.9155C14.3622 32.9155 13.3408 34.0274 13.3408 35.3989C13.3408 36.7704 14.3622 37.8822 15.6223 37.8822C15.9068 37.8822 16.179 37.825 16.4303 37.7214C16.4302 37.722 17.492 37.4099 18.19 36.027V36.8596C18.19 36.8596 17.8322 39.4842 15.3091 39.7715H14.9065V40.1805H21.7777V39.7715H21.3751C18.8521 39.4842 18.4942 36.8596 18.4942 36.8596V36.0831C18.6242 36.3947 19.343 37.9183 20.9584 37.8805C20.9809 37.8811 21.0034 37.8822 21.0262 37.8822C22.2862 37.8822 23.3076 36.7704 23.3076 35.3989C23.3076 34.0274 22.2862 32.9155 21.0262 32.9155Z" fill="#1A1919"/>
<defs>
<filter id="filter0_d_45_926" x="0.786801" y="0.700507" width="62.4264" height="84.4264" filterUnits="userSpaceOnUse" color-interpolation-filters="sRGB">
<feFlood flood-opacity="0" result="BackgroundImageFix"/>
<feColorMatrix in="SourceAlpha" type="matrix" values="0 0 0 0 0 0 0 0 0 0 0 0 0 0 0 0 0 0 127 0" result="hardAlpha"/>
<feOffset dy="0.913706"/>
<feGaussianBlur stdDeviation="3.1066"/>
<feColorMatrix type="matrix" values="0 0 0 0 0 0 0 0 0 0 0 0 0 0 0 0 0 0 0.1 0"/>
<feBlend mode="normal" in2="BackgroundImageFix" result="effect1_dropShadow_45_926"/>
<feBlend mode="normal" in="SourceGraphic" in2="effect1_dropShadow_45_926" result="shape"/>
</filter>
</defs>
</svg>
