<svg width="40" height="40" viewBox="0 0 40 40" fill="none" xmlns="http://www.w3.org/2000/svg">
<path d="M27.7626 11.4441C27.7639 11.4315 27.7705 11.409 27.7824 11.3762L29.3556 7.6623C29.4001 7.56105 29.4852 7.48835 29.6106 7.44429C29.7361 7.40022 29.8763 7.38633 30.0315 7.4027C30.1866 7.41897 30.321 7.4618 30.4346 7.53088C30.5481 7.60007 30.6161 7.68885 30.6387 7.79715L31.4116 11.7577C31.4165 11.7922 31.4183 11.8156 31.4169 11.8282C31.4055 11.9372 31.3274 12.0245 31.1827 12.0898C31.0381 12.1552 30.8923 12.1801 30.7456 12.1647C30.5652 12.1457 30.4646 12.0737 30.444 11.9486L30.3128 11.1399L28.9856 11.0003L28.6891 11.7641C28.6426 11.8822 28.5294 11.9317 28.3492 11.9128C28.2023 11.8974 28.065 11.8426 27.9371 11.7486C27.8093 11.6547 27.751 11.5532 27.7626 11.4441ZM29.2663 10.2666L30.1847 10.3631L29.9027 8.62916L29.2663 10.2666Z" fill="#9B62CD"/>
<path d="M33.7824 30.7922L19.0494 32.3409C18.4098 32.4082 17.8367 31.9441 17.7696 31.3045L15.3271 8.06938C15.2598 7.42979 15.7238 6.85672 16.3635 6.78953L31.0965 5.24084C31.7361 5.17366 32.3092 5.63758 32.3764 6.27727L34.8188 29.5123C34.8861 30.1519 34.4221 30.7249 33.7824 30.7922Z" fill="url(#paint0_linear_321_1288)"/>
<path d="M17.6663 12.8544C17.665 12.8419 17.6667 12.8184 17.6717 12.7839L18.4383 8.82406C18.4608 8.71576 18.5289 8.62697 18.6424 8.55779C18.7559 8.48861 18.8903 8.44588 19.0455 8.4296C19.2006 8.41333 19.341 8.42713 19.4664 8.47119C19.5919 8.51525 19.6768 8.58796 19.7215 8.68921L21.301 12.4025C21.3129 12.4352 21.3196 12.4578 21.3209 12.4703C21.3323 12.5794 21.2741 12.6809 21.1462 12.7749C21.0183 12.8689 20.8809 12.9236 20.7342 12.939C20.5539 12.958 20.4405 12.9085 20.3943 12.7904L20.0978 12.0266L18.7706 12.1661L18.6394 12.9748C18.6185 13.1 18.518 13.172 18.3378 13.1909C18.191 13.2063 18.0453 13.1814 17.9006 13.116C17.7559 13.0506 17.6778 12.9635 17.6663 12.8544ZM18.8924 11.39L19.8107 11.2935L19.1744 9.65607L18.8924 11.39Z" fill="#9B62CD"/>
<path d="M17.3407 7.58083C16.7011 7.64811 16.2371 8.22109 16.3043 8.86068L18.7467 32.0958C18.7557 32.1806 18.774 32.262 18.7996 32.3399C18.8811 32.3488 18.9645 32.3498 19.0493 32.3409L33.7824 30.7922C34.422 30.725 34.886 30.152 34.8189 29.5124L32.3764 6.27728C32.3675 6.19427 32.3497 6.11244 32.3235 6.03319C32.2405 6.02389 32.1568 6.02354 32.0738 6.03214L17.3407 7.58083Z" fill="url(#paint1_linear_321_1288)"/>
<path d="M26.1671 23.7645L30.2952 18.7443C31.471 17.3142 31.265 15.2019 29.835 14.026C28.405 12.8501 26.2926 13.0562 25.1167 14.4861L24.665 15.0355L24.1156 14.5837C22.6856 13.4079 20.5732 13.6139 19.3973 15.0438C18.2215 16.4738 18.4275 18.5862 19.8574 19.762L24.8777 23.8901C25.2685 24.2116 25.8458 24.1552 26.1671 23.7645Z" fill="url(#paint2_radial_321_1288)"/>
<path d="M20.3499 20.161L24.9532 23.9463C25.3398 24.2032 25.8659 24.1309 26.1671 23.7646L30.2951 18.7444C31.4095 17.3891 31.2819 15.4213 30.0483 14.2184C28.634 13.2801 26.7107 13.5455 25.6092 14.885L25.1575 15.4344L24.668 15.0319L24.665 15.0356L24.4676 14.8734C23.0427 13.8215 21.0277 14.0589 19.8898 15.4428C18.714 16.8727 18.92 18.9851 20.3499 20.161Z" fill="url(#paint3_linear_321_1288)"/>
<path d="M31.0965 5.24086L30.7771 5.27445L33.1859 28.1902C33.2532 28.8298 32.7892 29.4028 32.1495 29.47L17.7359 30.9852L17.7695 31.3046C17.8367 31.9442 18.4097 32.4082 19.0493 32.341L33.7824 30.7923C34.422 30.7251 34.886 30.152 34.8188 29.5125L32.3764 6.27738C32.3092 5.63759 31.7361 5.17358 31.0965 5.24086Z" fill="url(#paint4_linear_321_1288)"/>
<path d="M20.5694 6.49843L15.3729 7.60299C15.326 7.75376 15.3105 7.91249 15.3271 8.06948L17.7696 31.3046C17.8369 31.9442 18.4098 32.4082 19.0494 32.341L33.7825 30.7923C34.4221 30.725 34.8861 30.152 34.8189 29.5124L33.7108 18.9704L21.8466 7.10614C21.6126 6.64965 21.0952 6.38661 20.5694 6.49843Z" fill="url(#paint5_linear_321_1288)"/>
<path d="M25.9111 31.6292L11.4206 34.7093C10.7914 34.843 10.1731 34.4414 10.0394 33.8122L5.18193 10.9597C5.04823 10.3306 5.44982 9.71222 6.07885 9.57852L20.5694 6.49846C21.1985 6.36476 21.8169 6.76635 21.9506 7.39537L26.808 30.248C26.9418 30.8771 26.5402 31.4955 25.9111 31.6292Z" fill="url(#paint6_linear_321_1288)"/>
<path d="M8.00846 15.474C8.0058 15.4616 8.00513 15.4381 8.00637 15.4033L8.35495 11.3849C8.36599 11.2749 8.42442 11.1793 8.53015 11.0987C8.63587 11.018 8.76501 10.9615 8.91765 10.9291C9.0702 10.8966 9.21123 10.8957 9.34056 10.9265C9.46998 10.9572 9.562 11.0207 9.61701 11.1167L11.5759 14.6445C11.5912 14.6758 11.6002 14.6975 11.6028 14.7099C11.6256 14.8172 11.5782 14.9243 11.4609 15.0311C11.3435 15.1379 11.2126 15.2067 11.0683 15.2374C10.891 15.2751 10.7731 15.2377 10.7147 15.1251L10.34 14.3965L9.03461 14.674L8.98864 15.492C8.98103 15.6187 8.88853 15.7008 8.71124 15.7385C8.56678 15.7692 8.41928 15.7596 8.26864 15.7098C8.11799 15.6598 8.0313 15.5812 8.00846 15.474ZM9.07477 13.8894L9.97796 13.6974L9.17393 12.1354L9.07477 13.8894Z" fill="#9B62CD"/>
<path d="M7.13345 10.2633C6.50432 10.397 6.10273 11.0154 6.23644 11.6445L11.094 34.4971C11.1117 34.5806 11.1385 34.6595 11.1721 34.7343C11.2556 34.7348 11.3389 34.7264 11.4206 34.7092L25.9111 31.6292C26.5402 31.4955 26.9418 30.8771 26.808 30.248L21.9506 7.39544C21.9331 7.3138 21.9069 7.23426 21.8724 7.1582C21.789 7.15764 21.7057 7.16603 21.624 7.18323L7.13345 10.2633Z" fill="url(#paint7_linear_321_1288)"/>
<path d="M20.5694 6.49846L20.2552 6.56527L25.046 29.1037C25.1797 29.7328 24.7781 30.3512 24.149 30.4849L9.97266 33.4981L10.0395 33.8122C10.1732 34.4414 10.7915 34.843 11.4207 34.7092L25.9112 31.6291C26.5403 31.4954 26.9419 30.877 26.8081 30.2479L21.9507 7.39537C21.8169 6.76635 21.1985 6.36476 20.5694 6.49846Z" fill="url(#paint8_linear_321_1288)"/>
<path d="M20.2558 18.6023L15.451 15.5332C15.2714 15.4184 15.0536 15.3798 14.8455 15.4256C14.6374 15.4715 14.456 15.5981 14.3413 15.7777L11.2722 20.5825C10.3979 21.9512 10.7988 23.7693 12.1673 24.6435C13.4058 25.4346 15.0121 25.1816 15.9543 24.1122C15.8996 24.6538 15.7583 25.1427 15.5466 25.5171C15.4393 25.707 15.5869 26.113 15.7506 26.0783L18.4449 25.5056C18.6086 25.4709 18.5783 25.0399 18.403 24.9101C18.0408 24.6418 17.6857 24.23 17.397 23.729C18.7196 24.3681 20.3407 23.9319 21.151 22.6634C22.0252 21.2946 21.6244 19.4765 20.2558 18.6023Z" fill="url(#paint9_linear_321_1288)"/>
<path d="M21.549 20.4689C21.7039 21.1978 21.5839 21.986 21.151 22.6634C20.3404 23.9317 18.7191 24.3677 17.3968 23.7293C17.5414 23.9796 17.702 24.2078 17.8722 24.4069C18.0425 24.6059 18.2223 24.7759 18.4031 24.9102C18.5782 25.0401 18.608 25.4706 18.4446 25.5053L15.7508 26.0779C15.5873 26.1127 15.4395 25.7072 15.5466 25.5173C15.6261 25.3772 15.6957 25.2215 15.7549 25.0521L15.7547 25.0512C15.8525 24.769 15.9202 24.4512 15.9547 24.1124C15.5284 24.597 14.9646 24.9138 14.3617 25.042C13.7069 25.1819 13.0239 25.0935 12.4263 24.7914C12.4243 24.7909 12.4235 24.7911 12.4241 24.79C11.2762 23.8605 10.9865 22.1987 11.7997 20.9252L14.8683 16.1204C14.9831 15.9408 15.1645 15.814 15.3726 15.768C15.5808 15.722 15.7987 15.7605 15.9785 15.8751L20.3924 18.6953C21.0063 19.1362 21.4018 19.7766 21.549 20.4689Z" fill="url(#paint10_linear_321_1288)"/>
<defs>
<linearGradient id="paint0_linear_321_1288" x1="22.8755" y1="16.9932" x2="49.113" y2="38.2248" gradientUnits="userSpaceOnUse">
<stop stop-color="#E4F2FF"/>
<stop offset="1" stop-color="#B2CBFF"/>
</linearGradient>
<linearGradient id="paint1_linear_321_1288" x1="25.6919" y1="19.2436" x2="8.56591" y2="9.52286" gradientUnits="userSpaceOnUse">
<stop stop-color="white" stop-opacity="0"/>
<stop offset="1" stop-color="white"/>
</linearGradient>
<radialGradient id="paint2_radial_321_1288" cx="0" cy="0" r="1" gradientUnits="userSpaceOnUse" gradientTransform="translate(21.4419 14.5332) rotate(-5.984) scale(10.0365 10.0365)">
<stop stop-color="#FF819C"/>
<stop offset="0.474" stop-color="#FF7F9B"/>
<stop offset="0.645" stop-color="#FE7898"/>
<stop offset="0.766" stop-color="#FD6D93"/>
<stop offset="0.865" stop-color="#FC5C8B"/>
<stop offset="0.948" stop-color="#FA4681"/>
<stop offset="1" stop-color="#F83479"/>
</radialGradient>
<linearGradient id="paint3_linear_321_1288" x1="25.4015" y1="17.6133" x2="19.2179" y2="6.64151" gradientUnits="userSpaceOnUse">
<stop stop-color="#FFD9A9" stop-opacity="0"/>
<stop offset="1" stop-color="#FCDBCB"/>
</linearGradient>
<linearGradient id="paint4_linear_321_1288" x1="30.6932" y1="19.0449" x2="61.8712" y2="0.298288" gradientUnits="userSpaceOnUse">
<stop stop-color="#3F3CED" stop-opacity="0"/>
<stop offset="0.28" stop-color="#3C3DE4" stop-opacity="0.28"/>
<stop offset="0.731" stop-color="#3541CC" stop-opacity="0.731"/>
<stop offset="1" stop-color="#2F43BB"/>
</linearGradient>
<linearGradient id="paint5_linear_321_1288" x1="27.9098" y1="18.555" x2="19.1973" y2="19.5992" gradientUnits="userSpaceOnUse">
<stop stop-color="#3F3CED" stop-opacity="0"/>
<stop offset="0.28" stop-color="#3C3DE4" stop-opacity="0.28"/>
<stop offset="0.731" stop-color="#3541CC" stop-opacity="0.731"/>
<stop offset="1" stop-color="#2F43BB"/>
</linearGradient>
<linearGradient id="paint6_linear_321_1288" x1="13.6143" y1="19.0472" x2="41.9343" y2="37.4103" gradientUnits="userSpaceOnUse">
<stop stop-color="#E4F2FF"/>
<stop offset="1" stop-color="#B2CBFF"/>
</linearGradient>
<linearGradient id="paint7_linear_321_1288" x1="16.6512" y1="20.9898" x2="-1.39998" y2="13.1186" gradientUnits="userSpaceOnUse">
<stop stop-color="white" stop-opacity="0"/>
<stop offset="1" stop-color="white"/>
</linearGradient>
<linearGradient id="paint8_linear_321_1288" x1="21.6045" y1="20.2679" x2="50.6459" y2="-1.64629" gradientUnits="userSpaceOnUse">
<stop stop-color="#3F3CED" stop-opacity="0"/>
<stop offset="0.28" stop-color="#3C3DE4" stop-opacity="0.28"/>
<stop offset="0.731" stop-color="#3541CC" stop-opacity="0.731"/>
<stop offset="1" stop-color="#2F43BB"/>
</linearGradient>
<linearGradient id="paint9_linear_321_1288" x1="13.7636" y1="19.7177" x2="18.9409" y2="23.7174" gradientUnits="userSpaceOnUse">
<stop stop-color="#9B62CD"/>
<stop offset="0.3" stop-color="#985DCB"/>
<stop offset="0.672" stop-color="#8F4EC7"/>
<stop offset="1" stop-color="#833AC1"/>
</linearGradient>
<linearGradient id="paint10_linear_321_1288" x1="16.7635" y1="22.2191" x2="10.3789" y2="12.4011" gradientUnits="userSpaceOnUse">
<stop stop-color="#9B62CD" stop-opacity="0"/>
<stop offset="1" stop-color="#FF75C8"/>
</linearGradient>
</defs>
</svg>
