<svg width="64" height="86" viewBox="0 0 64 86" fill="none" xmlns="http://www.w3.org/2000/svg">
<g filter="url(#filter0_d_45_950)">
<rect x="7" y="6" width="50" height="72" rx="3.65482" fill="#F2F2F2"/>
<rect x="7.09137" y="6.09137" width="49.8173" height="71.8173" rx="3.56345" stroke="#D2D2D2" stroke-width="0.182741"/>
</g>
<path d="M21.5013 20.7001C21.5013 21.3521 21.3491 21.9018 21.0445 22.3491C20.7399 22.7917 20.3211 23.1272 19.7881 23.3556C19.2599 23.5793 18.6603 23.6911 17.9893 23.6911C17.3183 23.6911 16.7163 23.5793 16.1833 23.3556C15.6503 23.1272 15.2291 22.7917 14.9198 22.3491C14.6105 21.9018 14.4558 21.3521 14.4558 20.7001C14.4558 20.2623 14.5438 19.8673 14.7199 19.5152C14.896 19.1583 15.1411 18.8537 15.4552 18.6015C15.774 18.3445 16.1476 18.1494 16.5759 18.0161C17.0042 17.8781 17.4706 17.8091 17.975 17.8091C18.6508 17.8091 19.2551 17.9281 19.7881 18.166C20.3211 18.404 20.7399 18.7395 21.0445 19.1725C21.3491 19.6056 21.5013 20.1148 21.5013 20.7001ZM19.4312 20.5645C19.4312 20.2457 19.3694 19.972 19.2456 19.7436C19.1267 19.5104 18.9577 19.332 18.7388 19.2082C18.5199 19.0845 18.2653 19.0226 17.975 19.0226C17.6847 19.0226 17.4301 19.0845 17.2112 19.2082C16.9923 19.332 16.821 19.5104 16.6972 19.7436C16.5783 19.972 16.5188 20.2457 16.5188 20.5645C16.5188 20.8786 16.5783 21.1499 16.6972 21.3783C16.821 21.6067 16.9923 21.7828 17.2112 21.9065C17.4349 22.0255 17.6942 22.085 17.9893 22.085C18.2843 22.085 18.5389 22.0255 18.7531 21.9065C18.972 21.7828 19.1386 21.6067 19.2528 21.3783C19.3717 21.1499 19.4312 20.8786 19.4312 20.5645ZM21.28 15.9103C21.28 16.4386 21.1397 16.9073 20.8589 17.3166C20.5781 17.7211 20.1879 18.0376 19.6882 18.266C19.1933 18.4944 18.627 18.6086 17.9893 18.6086C17.3468 18.6086 16.7758 18.4944 16.2761 18.266C15.7764 18.0376 15.3862 17.7211 15.1054 17.3166C14.8246 16.9073 14.6842 16.4386 14.6842 15.9103C14.6842 15.2822 14.8246 14.7539 15.1054 14.3256C15.3909 13.8926 15.7812 13.5642 16.2761 13.3405C16.7758 13.1169 17.3421 13.005 17.975 13.005C18.6175 13.005 19.1861 13.1169 19.6811 13.3405C20.1807 13.5642 20.571 13.8926 20.8517 14.3256C21.1373 14.7539 21.28 15.2822 21.28 15.9103ZM19.2242 16.0031C19.2242 15.7224 19.1742 15.4797 19.0743 15.275C18.9744 15.0656 18.8316 14.9038 18.646 14.7896C18.4652 14.6754 18.2415 14.6183 17.975 14.6183C17.718 14.6183 17.4967 14.673 17.3111 14.7825C17.1303 14.8919 16.9899 15.0514 16.89 15.2607C16.7948 15.4654 16.7472 15.7128 16.7472 16.0031C16.7472 16.2839 16.7948 16.5314 16.89 16.7455C16.9899 16.9549 17.1327 17.1191 17.3183 17.2381C17.5039 17.357 17.7275 17.4165 17.9893 17.4165C18.251 17.4165 18.4723 17.357 18.6531 17.2381C18.8387 17.1191 18.9791 16.9549 19.0743 16.7455C19.1742 16.5314 19.2242 16.2839 19.2242 16.0031Z" fill="black"/>
<path fill-rule="evenodd" clip-rule="evenodd" d="M20.75 37.4286C22.6301 37.4529 23.7868 36.0694 23.1506 34.6131C22.5144 33.1567 21.8801 32.8291 20.8814 31.7733C19.8822 30.7175 18.4293 28.891 18.4362 28.4602C18.4435 28.891 17.0504 30.7175 16.0513 31.7733C15.0526 32.8291 14.4188 33.1567 13.7821 34.6131C13.1459 36.0694 14.303 37.4529 16.1827 37.4286C17.4733 37.4119 18.0541 36.5604 18.291 36.028L18.291 36.7248C18.291 36.7248 17.8789 39.238 14.9711 39.5132L14.5076 39.5132L14.5076 39.9048L22.4256 39.9048L22.4256 39.5132L21.9615 39.5132C19.0542 39.238 18.6417 36.7248 18.6417 36.7248L18.6417 36.1195C18.9208 36.6525 19.531 37.4129 20.75 37.4286Z" fill="#1A1919"/>
<defs>
<filter id="filter0_d_45_950" x="0.786801" y="0.700507" width="62.4264" height="84.4264" filterUnits="userSpaceOnUse" color-interpolation-filters="sRGB">
<feFlood flood-opacity="0" result="BackgroundImageFix"/>
<feColorMatrix in="SourceAlpha" type="matrix" values="0 0 0 0 0 0 0 0 0 0 0 0 0 0 0 0 0 0 127 0" result="hardAlpha"/>
<feOffset dy="0.913706"/>
<feGaussianBlur stdDeviation="3.1066"/>
<feColorMatrix type="matrix" values="0 0 0 0 0 0 0 0 0 0 0 0 0 0 0 0 0 0 0.1 0"/>
<feBlend mode="normal" in2="BackgroundImageFix" result="effect1_dropShadow_45_950"/>
<feBlend mode="normal" in="SourceGraphic" in2="effect1_dropShadow_45_950" result="shape"/>
</filter>
</defs>
</svg>
