<svg width="64" height="86" viewBox="0 0 64 86" fill="none" xmlns="http://www.w3.org/2000/svg">
<g filter="url(#filter0_d_45_953)">
<rect x="7" y="6" width="50" height="72" rx="3.65482" fill="#F2F2F2"/>
<rect x="7.09137" y="6.09137" width="49.8173" height="71.8173" rx="3.56345" stroke="#D2D2D2" stroke-width="0.182741"/>
</g>
<path d="M15.9549 21.985H16.0905C16.6616 21.985 17.1517 21.916 17.561 21.778C17.975 21.6353 18.3153 21.4306 18.5818 21.1641C18.8483 20.8976 19.0458 20.5717 19.1742 20.1862C19.3027 19.796 19.367 19.3534 19.367 18.8585V16.8883C19.367 16.5123 19.3289 16.1816 19.2528 15.8961C19.1814 15.6105 19.0767 15.375 18.9387 15.1894C18.8054 14.999 18.6484 14.8562 18.4675 14.7611C18.2915 14.6659 18.0964 14.6183 17.8822 14.6183C17.6538 14.6183 17.4515 14.6754 17.2754 14.7896C17.0994 14.8991 16.9495 15.049 16.8257 15.2393C16.7068 15.4297 16.614 15.6486 16.5473 15.8961C16.4855 16.1388 16.4545 16.3934 16.4545 16.6599C16.4545 16.9264 16.4855 17.181 16.5473 17.4237C16.6092 17.6616 16.702 17.8734 16.8257 18.059C16.9495 18.2398 17.1041 18.385 17.2897 18.4944C17.4753 18.5991 17.6942 18.6514 17.9464 18.6514C18.1892 18.6514 18.4057 18.6062 18.596 18.5158C18.7912 18.4206 18.9553 18.2969 19.0886 18.1446C19.2266 17.9923 19.3313 17.8234 19.4027 17.6378C19.4788 17.4522 19.5169 17.2642 19.5169 17.0739L20.195 17.4451C20.195 17.7782 20.1236 18.1066 19.9809 18.4302C19.8381 18.7538 19.6382 19.0488 19.3813 19.3153C19.129 19.5771 18.8364 19.7864 18.5032 19.9435C18.1701 20.1005 17.8132 20.1791 17.4325 20.1791C16.9471 20.1791 16.5164 20.091 16.1405 19.9149C15.7645 19.7341 15.4457 19.4866 15.1839 19.1725C14.9269 18.8537 14.7318 18.4825 14.5986 18.059C14.4653 17.6354 14.3987 17.1762 14.3987 16.6813C14.3987 16.1768 14.4796 15.7033 14.6414 15.2607C14.808 14.8182 15.0435 14.4279 15.3481 14.0901C15.6574 13.7522 16.0262 13.4881 16.4545 13.2977C16.8876 13.1026 17.3682 13.005 17.8965 13.005C18.4247 13.005 18.9054 13.1073 19.3384 13.312C19.7715 13.5166 20.1427 13.8069 20.452 14.1829C20.7613 14.554 20.9993 14.999 21.1658 15.5177C21.3372 16.0364 21.4228 16.6123 21.4228 17.2452V17.959C21.4228 18.6348 21.3491 19.263 21.2015 19.8435C21.0588 20.4241 20.8422 20.95 20.5519 21.4211C20.2664 21.8875 19.9095 22.2872 19.4812 22.6204C19.0576 22.9535 18.5651 23.2081 18.0036 23.3842C17.442 23.5602 16.8138 23.6483 16.119 23.6483H15.9549V21.985Z" fill="black"/>
<path fill-rule="evenodd" clip-rule="evenodd" d="M20.75 37.4286C22.6301 37.4529 23.7868 36.0694 23.1506 34.6131C22.5144 33.1567 21.8801 32.8291 20.8814 31.7733C19.8822 30.7175 18.4293 28.891 18.4362 28.4602C18.4435 28.891 17.0504 30.7175 16.0513 31.7733C15.0526 32.8291 14.4188 33.1567 13.7821 34.6131C13.1459 36.0694 14.303 37.4529 16.1827 37.4286C17.4733 37.4119 18.0541 36.5604 18.291 36.028L18.291 36.7248C18.291 36.7248 17.8789 39.238 14.9711 39.5132L14.5076 39.5132L14.5076 39.9048L22.4256 39.9048L22.4256 39.5132L21.9615 39.5132C19.0542 39.238 18.6417 36.7248 18.6417 36.7248L18.6417 36.1195C18.9208 36.6525 19.531 37.4129 20.75 37.4286Z" fill="#1A1919"/>
<defs>
<filter id="filter0_d_45_953" x="0.786801" y="0.700507" width="62.4264" height="84.4264" filterUnits="userSpaceOnUse" color-interpolation-filters="sRGB">
<feFlood flood-opacity="0" result="BackgroundImageFix"/>
<feColorMatrix in="SourceAlpha" type="matrix" values="0 0 0 0 0 0 0 0 0 0 0 0 0 0 0 0 0 0 127 0" result="hardAlpha"/>
<feOffset dy="0.913706"/>
<feGaussianBlur stdDeviation="3.1066"/>
<feColorMatrix type="matrix" values="0 0 0 0 0 0 0 0 0 0 0 0 0 0 0 0 0 0 0.1 0"/>
<feBlend mode="normal" in2="BackgroundImageFix" result="effect1_dropShadow_45_953"/>
<feBlend mode="normal" in="SourceGraphic" in2="effect1_dropShadow_45_953" result="shape"/>
</filter>
</defs>
</svg>
