<svg width="64" height="86" viewBox="0 0 64 86" fill="none" xmlns="http://www.w3.org/2000/svg">
<g filter="url(#filter0_d_45_976)">
<rect x="7" y="6" width="50" height="72" rx="3.65482" fill="#F2F2F2"/>
<rect x="7.09137" y="6.09137" width="49.8173" height="71.8173" rx="3.56345" stroke="#D2D2D2" stroke-width="0.182741"/>
</g>
<path d="M19.5169 22.0065L22.3294 24.2336L20.9802 25.4043L18.2106 23.1771L19.5169 22.0065ZM22.4008 18.1089V18.6015C22.4008 19.3915 22.2937 20.1005 22.0795 20.7287C21.8701 21.3569 21.568 21.8922 21.173 22.3348C20.778 22.7726 20.3116 23.1081 19.7739 23.3413C19.2361 23.5745 18.6389 23.6911 17.9821 23.6911C17.3302 23.6911 16.7329 23.5745 16.1904 23.3413C15.6479 23.1081 15.1792 22.7726 14.7842 22.3348C14.3892 21.8922 14.0822 21.3569 13.8633 20.7287C13.6492 20.1005 13.5421 19.3915 13.5421 18.6015V18.1089C13.5421 17.3142 13.6492 16.6051 13.8633 15.9817C14.0822 15.3535 14.3868 14.8182 14.777 14.3756C15.1673 13.933 15.6336 13.5951 16.1761 13.3619C16.7187 13.1288 17.3159 13.0122 17.9679 13.0122C18.6246 13.0122 19.2218 13.1288 19.7596 13.3619C20.3021 13.5951 20.7708 13.933 21.1658 14.3756C21.5608 14.8182 21.8654 15.3535 22.0795 15.9817C22.2937 16.6051 22.4008 17.3142 22.4008 18.1089ZM20.2379 18.6015V18.0947C20.2379 17.5426 20.1855 17.0572 20.0808 16.6384C19.9809 16.2197 19.8333 15.8675 19.6382 15.582C19.4479 15.2964 19.2123 15.0823 18.9315 14.9395C18.6508 14.792 18.3295 14.7182 17.9679 14.7182C17.6062 14.7182 17.285 14.792 17.0042 14.9395C16.7234 15.0823 16.4879 15.2964 16.2975 15.582C16.1071 15.8675 15.962 16.2197 15.8621 16.6384C15.7621 17.0572 15.7122 17.5426 15.7122 18.0947V18.6015C15.7122 19.1488 15.7621 19.6342 15.8621 20.0577C15.962 20.4765 16.1071 20.831 16.2975 21.1213C16.4926 21.4068 16.7306 21.6234 17.0113 21.7709C17.2969 21.9184 17.6205 21.9922 17.9821 21.9922C18.3438 21.9922 18.6627 21.9184 18.9387 21.7709C19.2195 21.6234 19.455 21.4068 19.6454 21.1213C19.8405 20.831 19.988 20.4765 20.0879 20.0577C20.1879 19.6342 20.2379 19.1488 20.2379 18.6015Z" fill="#F24822"/>
<path fill-rule="evenodd" clip-rule="evenodd" d="M13.0728 34.6223L18.4223 40.1417L23.7718 34.6223L18.4223 29.103L13.0728 34.6223Z" fill="#F24822"/>
<defs>
<filter id="filter0_d_45_976" x="0.786801" y="0.700507" width="62.4264" height="84.4264" filterUnits="userSpaceOnUse" color-interpolation-filters="sRGB">
<feFlood flood-opacity="0" result="BackgroundImageFix"/>
<feColorMatrix in="SourceAlpha" type="matrix" values="0 0 0 0 0 0 0 0 0 0 0 0 0 0 0 0 0 0 127 0" result="hardAlpha"/>
<feOffset dy="0.913706"/>
<feGaussianBlur stdDeviation="3.1066"/>
<feColorMatrix type="matrix" values="0 0 0 0 0 0 0 0 0 0 0 0 0 0 0 0 0 0 0.1 0"/>
<feBlend mode="normal" in2="BackgroundImageFix" result="effect1_dropShadow_45_976"/>
<feBlend mode="normal" in="SourceGraphic" in2="effect1_dropShadow_45_976" result="shape"/>
</filter>
</defs>
</svg>
