<svg width="40" height="40" viewBox="0 0 40 40" fill="none" xmlns="http://www.w3.org/2000/svg">
<path d="M21.6073 10.4515C21.6057 10.4368 21.6077 10.4095 21.6135 10.3691L22.5086 5.74546C22.5349 5.61901 22.6144 5.51534 22.747 5.43456C22.8795 5.35378 23.0364 5.30388 23.2177 5.28488C23.3987 5.26588 23.5627 5.282 23.7091 5.33344C23.8556 5.38489 23.9548 5.46978 24.0069 5.58801L25.8512 9.92377C25.8651 9.962 25.8729 9.98833 25.8745 10.003C25.8878 10.1303 25.8198 10.2489 25.6705 10.3586C25.5211 10.4684 25.3607 10.5322 25.1894 10.5502C24.9789 10.5724 24.8465 10.5146 24.7925 10.3767L24.4463 9.48486L22.8967 9.64776L22.7434 10.592C22.7191 10.7383 22.6018 10.8223 22.3913 10.8444C22.2198 10.8624 22.0497 10.8333 21.8808 10.7569C21.7118 10.6806 21.6207 10.5788 21.6073 10.4515ZM23.0389 8.74161L24.1112 8.62893L23.3681 6.71695L23.0389 8.74161Z" fill="#9B62CD"/>
<path d="M31.2341 32.3736L14.3144 35.97C13.5799 36.1261 12.8578 35.6572 12.7017 34.9226L7.02999 8.23913C6.87387 7.50454 7.34278 6.7825 8.07726 6.62638L24.997 3.02999C25.7316 2.87387 26.4536 3.34278 26.6097 4.07726L32.2814 30.7609C32.4377 31.4955 31.9687 32.2175 31.2341 32.3736Z" fill="url(#paint0_linear_321_1305)"/>
<path d="M10.3304 13.5102C10.3273 13.4957 10.3265 13.4683 10.3279 13.4276L10.7349 8.7356C10.7478 8.60715 10.8161 8.49559 10.9395 8.40147C11.063 8.30725 11.2137 8.24124 11.392 8.20335C11.5701 8.16546 11.7348 8.16446 11.8858 8.20035C12.0369 8.23624 12.1443 8.31036 12.2086 8.42247L14.4959 12.5417C14.5137 12.5782 14.5242 12.6036 14.5272 12.618C14.5539 12.7433 14.4986 12.8684 14.3616 12.993C14.2244 13.1178 14.0717 13.1981 13.9032 13.2339C13.6961 13.2779 13.5584 13.2343 13.4903 13.1028L13.0527 12.2521L11.5285 12.5761L11.4749 13.5313C11.466 13.6792 11.358 13.7751 11.151 13.8191C10.9823 13.855 10.8101 13.8437 10.6342 13.7855C10.4583 13.7272 10.357 13.6354 10.3304 13.5102ZM11.5754 11.66L12.63 11.4358L11.6912 9.61197L11.5754 11.66Z" fill="#9B62CD"/>
<path d="M24.997 3.02999L24.6302 3.10799L30.224 29.4247C30.3801 30.1593 29.9112 30.8813 29.1767 31.0374L12.6238 34.5558L12.7018 34.9226C12.8579 35.6572 13.58 36.1261 14.3146 35.9699L31.2343 32.3735C31.9688 32.2174 32.4378 31.4954 32.2815 30.7608L26.6098 4.07726C26.4536 3.34278 25.7315 2.87387 24.997 3.02999Z" fill="url(#paint1_linear_321_1305)"/>
<path d="M24.6308 17.1629L19.0206 13.5793C18.8109 13.4453 18.5566 13.4002 18.3136 13.4537C18.0706 13.5073 17.8588 13.6552 17.7248 13.8648L14.1412 19.4751C13.1204 21.0732 13.5884 23.1961 15.1864 24.2169C16.6324 25.1406 18.5081 24.8451 19.6083 23.5965C19.5444 24.2289 19.3794 24.7997 19.1322 25.2369C19.0069 25.4586 19.1792 25.9327 19.3704 25.8922L22.5164 25.2235C22.7075 25.1829 22.6721 24.6797 22.4674 24.5281C22.0445 24.2149 21.6299 23.7341 21.2928 23.1491C22.8371 23.8953 24.7299 23.386 25.6761 21.9048C26.6968 20.3066 26.2289 18.1837 24.6308 17.1629Z" fill="url(#paint2_linear_321_1305)"/>
<path d="M26.1408 19.3424C26.3217 20.1934 26.1816 21.1138 25.6761 21.9047C24.7296 23.3857 22.8365 23.8948 21.2926 23.1494C21.4615 23.4416 21.6489 23.7081 21.8477 23.9405C22.0465 24.173 22.2565 24.3714 22.4675 24.5282C22.672 24.6799 22.7068 25.1826 22.5161 25.2231L19.3706 25.8917C19.1797 25.9323 19.0071 25.4588 19.1322 25.2371C19.225 25.0736 19.3062 24.8917 19.3754 24.6939L19.3751 24.6929C19.4894 24.3634 19.5685 23.9923 19.6087 23.5967C19.1109 24.1625 18.4526 24.5324 17.7486 24.6821C16.984 24.8455 16.1866 24.7423 15.4888 24.3895C15.4865 24.389 15.4855 24.3892 15.4863 24.3879C14.1459 23.3026 13.8076 21.3622 14.7571 19.8752L18.3402 14.2649C18.4742 14.0552 18.686 13.9072 18.9291 13.8535C19.1721 13.7997 19.4266 13.8447 19.6365 13.9785L24.7904 17.2715C25.5071 17.7863 25.969 18.534 26.1408 19.3424Z" fill="url(#paint3_linear_321_1305)"/>
<defs>
<linearGradient id="paint0_linear_321_1305" x1="16.876" y1="17.6824" x2="49.9435" y2="39.1239" gradientUnits="userSpaceOnUse">
<stop stop-color="#E4F2FF"/>
<stop offset="1" stop-color="#B2CBFF"/>
</linearGradient>
<linearGradient id="paint1_linear_321_1305" x1="26.2056" y1="19.1077" x2="60.1154" y2="-6.48014" gradientUnits="userSpaceOnUse">
<stop stop-color="#3F3CED" stop-opacity="0"/>
<stop offset="0.28" stop-color="#3C3DE4" stop-opacity="0.28"/>
<stop offset="0.731" stop-color="#3541CC" stop-opacity="0.731"/>
<stop offset="1" stop-color="#2F43BB"/>
</linearGradient>
<linearGradient id="paint2_linear_321_1305" x1="17.0503" y1="18.4653" x2="23.0955" y2="23.1355" gradientUnits="userSpaceOnUse">
<stop stop-color="#9B62CD"/>
<stop offset="0.3" stop-color="#985DCB"/>
<stop offset="0.672" stop-color="#8F4EC7"/>
<stop offset="1" stop-color="#833AC1"/>
</linearGradient>
<linearGradient id="paint3_linear_321_1305" x1="20.5531" y1="21.386" x2="13.0981" y2="9.92216" gradientUnits="userSpaceOnUse">
<stop stop-color="#9B62CD" stop-opacity="0"/>
<stop offset="1" stop-color="#FF75C8"/>
</linearGradient>
</defs>
</svg>
