<svg width="64" height="86" viewBox="0 0 64 86" fill="none" xmlns="http://www.w3.org/2000/svg">
<g filter="url(#filter0_d_45_928)">
<rect x="7" y="6" width="50" height="72" rx="3.65482" fill="#F2F2F2"/>
<rect x="7.09137" y="6.09137" width="49.8173" height="71.8173" rx="3.56345" stroke="#D2D2D2" stroke-width="0.182741"/>
</g>
<path d="M18.2248 14.9324L15.3981 23.5483H13.1209L16.9828 13.1549H18.4319L18.2248 14.9324ZM20.5734 23.5483L17.7394 14.9324L17.511 13.1549H18.9744L22.8576 23.5483H20.5734ZM20.4449 19.6794V21.3569H14.9555V19.6794H20.4449Z" fill="black"/>
<path fill-rule="evenodd" clip-rule="evenodd" d="M20.7501 37.4286C22.6302 37.4529 23.7869 36.0694 23.1507 34.6131C22.5145 33.1567 21.8802 32.8291 20.8815 31.7733C19.8823 30.7175 18.4294 28.891 18.4363 28.4602C18.4437 28.891 17.0506 30.7175 16.0514 31.7733C15.0527 32.8291 14.4189 33.1567 13.7822 34.6131C13.146 36.0694 14.3032 37.4529 16.1828 37.4286C17.4734 37.4119 18.0542 36.5604 18.2911 36.028L18.2911 36.7248C18.2911 36.7248 17.8791 39.238 14.9713 39.5132L14.5077 39.5132L14.5077 39.9048L22.4257 39.9048L22.4257 39.5132L21.9617 39.5132C19.0543 39.238 18.6418 36.7248 18.6418 36.7248L18.6418 36.1195C18.9209 36.6525 19.5311 37.4129 20.7501 37.4286Z" fill="#1A1919"/>
<defs>
<filter id="filter0_d_45_928" x="0.786801" y="0.700507" width="62.4264" height="84.4264" filterUnits="userSpaceOnUse" color-interpolation-filters="sRGB">
<feFlood flood-opacity="0" result="BackgroundImageFix"/>
<feColorMatrix in="SourceAlpha" type="matrix" values="0 0 0 0 0 0 0 0 0 0 0 0 0 0 0 0 0 0 127 0" result="hardAlpha"/>
<feOffset dy="0.913706"/>
<feGaussianBlur stdDeviation="3.1066"/>
<feColorMatrix type="matrix" values="0 0 0 0 0 0 0 0 0 0 0 0 0 0 0 0 0 0 0.1 0"/>
<feBlend mode="normal" in2="BackgroundImageFix" result="effect1_dropShadow_45_928"/>
<feBlend mode="normal" in="SourceGraphic" in2="effect1_dropShadow_45_928" result="shape"/>
</filter>
</defs>
</svg>
