<svg width="64" height="86" viewBox="0 0 64 86" fill="none" xmlns="http://www.w3.org/2000/svg">
<g filter="url(#filter0_d_45_933)">
<rect x="7" y="6" width="50" height="72" rx="3.65482" fill="#F2F2F2"/>
<rect x="7.09137" y="6.09137" width="49.8173" height="71.8173" rx="3.56345" stroke="#D2D2D2" stroke-width="0.182741"/>
</g>
<path d="M16.6044 17.4593H17.7037C18.0559 17.4593 18.3462 17.3999 18.5746 17.2809C18.803 17.1572 18.972 16.9858 19.0814 16.7669C19.1957 16.5433 19.2528 16.2839 19.2528 15.9889C19.2528 15.7224 19.2004 15.4868 19.0957 15.2822C18.9958 15.0728 18.8411 14.911 18.6317 14.7968C18.4223 14.6778 18.1582 14.6183 17.8394 14.6183C17.5872 14.6183 17.354 14.6683 17.1398 14.7682C16.9257 14.8681 16.7543 15.0085 16.6259 15.1894C16.4974 15.3702 16.4331 15.5891 16.4331 15.8461H14.3701C14.3701 15.275 14.5224 14.7777 14.827 14.3542C15.1363 13.9306 15.5504 13.5999 16.0691 13.3619C16.5878 13.124 17.1589 13.005 17.7823 13.005C18.4866 13.005 19.1029 13.1192 19.6311 13.3477C20.1593 13.5713 20.571 13.9021 20.866 14.3399C21.1611 14.7777 21.3086 15.3202 21.3086 15.9674C21.3086 16.2958 21.2325 16.6146 21.0802 16.924C20.9279 17.2285 20.709 17.5046 20.4234 17.752C20.1427 17.9947 19.8 18.1898 19.3955 18.3374C18.991 18.4801 18.5366 18.5515 18.0321 18.5515H16.6044V17.4593ZM16.6044 19.0226V17.959H18.0321C18.5984 17.959 19.0957 18.0233 19.524 18.1518C19.9523 18.2803 20.3116 18.4659 20.6019 18.7086C20.8922 18.9465 21.1111 19.2297 21.2586 19.558C21.4062 19.8816 21.4799 20.2409 21.4799 20.6359C21.4799 21.1213 21.3871 21.5544 21.2015 21.9351C21.0159 22.311 20.7542 22.6299 20.4163 22.8916C20.0832 23.1534 19.693 23.3532 19.2456 23.4912C18.7983 23.6245 18.3105 23.6911 17.7823 23.6911C17.3445 23.6911 16.9138 23.6316 16.4902 23.5126C16.0714 23.3889 15.6907 23.2057 15.3481 22.963C15.0102 22.7155 14.739 22.4062 14.5343 22.035C14.3345 21.6591 14.2345 21.2141 14.2345 20.7001H16.2975C16.2975 20.9666 16.3641 21.2046 16.4974 21.414C16.6306 21.6234 16.8138 21.7876 17.047 21.9065C17.285 22.0255 17.5491 22.085 17.8394 22.085C18.1677 22.085 18.4485 22.0255 18.6817 21.9065C18.9196 21.7828 19.1005 21.6115 19.2242 21.3926C19.3527 21.1689 19.4169 20.9095 19.4169 20.6145C19.4169 20.2338 19.3479 19.9292 19.2099 19.7008C19.0719 19.4676 18.8744 19.2963 18.6175 19.1868C18.3605 19.0774 18.0559 19.0226 17.7037 19.0226H16.6044Z" fill="#050505"/>
<path fill-rule="evenodd" clip-rule="evenodd" d="M21.0263 32.9155C20.7158 32.9155 20.4199 32.9833 20.1501 33.1056C20.4035 32.7055 20.5521 32.2209 20.5521 31.6982C20.5521 30.3267 19.5306 29.2148 18.2706 29.2148C17.0106 29.2148 15.9892 30.3267 15.9892 31.6982C15.9892 32.1958 16.1242 32.6589 16.3557 33.0474C16.1255 32.9623 15.879 32.9155 15.6224 32.9155C14.3624 32.9155 13.3409 34.0274 13.3409 35.3989C13.3409 36.7704 14.3624 37.8822 15.6224 37.8822C15.907 37.8822 16.1792 37.825 16.4304 37.7214C16.4303 37.722 17.4922 37.4099 18.1901 36.027V36.8596C18.1901 36.8596 17.8323 39.4842 15.3093 39.7715H14.9066V40.1805H21.7778V39.7715H21.3752C18.8522 39.4842 18.4943 36.8596 18.4943 36.8596V36.0831C18.6243 36.3947 19.3431 37.9183 20.9585 37.8805C20.9811 37.8811 21.0035 37.8822 21.0263 37.8822C22.2863 37.8822 23.3077 36.7704 23.3077 35.3989C23.3077 34.0274 22.2863 32.9155 21.0263 32.9155Z" fill="#1A1919"/>
<defs>
<filter id="filter0_d_45_933" x="0.786801" y="0.700507" width="62.4264" height="84.4264" filterUnits="userSpaceOnUse" color-interpolation-filters="sRGB">
<feFlood flood-opacity="0" result="BackgroundImageFix"/>
<feColorMatrix in="SourceAlpha" type="matrix" values="0 0 0 0 0 0 0 0 0 0 0 0 0 0 0 0 0 0 127 0" result="hardAlpha"/>
<feOffset dy="0.913706"/>
<feGaussianBlur stdDeviation="3.1066"/>
<feColorMatrix type="matrix" values="0 0 0 0 0 0 0 0 0 0 0 0 0 0 0 0 0 0 0.1 0"/>
<feBlend mode="normal" in2="BackgroundImageFix" result="effect1_dropShadow_45_933"/>
<feBlend mode="normal" in="SourceGraphic" in2="effect1_dropShadow_45_933" result="shape"/>
</filter>
</defs>
</svg>
