<svg width="64" height="86" viewBox="0 0 64 86" fill="none" xmlns="http://www.w3.org/2000/svg">
<g filter="url(#filter0_d_45_934)">
<rect x="7.16138" y="6.11279" width="50" height="72" rx="3.65482" fill="#F2F2F2"/>
<rect x="7.25275" y="6.20416" width="49.8173" height="71.8173" rx="3.56345" stroke="#D2D2D2" stroke-width="0.182741"/>
</g>
<path d="M16.7658 17.5721H17.8651C18.2173 17.5721 18.5076 17.5127 18.736 17.3937C18.9644 17.27 19.1334 17.0986 19.2428 16.8797C19.357 16.6561 19.4141 16.3967 19.4141 16.1016C19.4141 15.8351 19.3618 15.5996 19.2571 15.395C19.1572 15.1856 19.0025 15.0238 18.7931 14.9095C18.5837 14.7906 18.3196 14.7311 18.0008 14.7311C17.7485 14.7311 17.5153 14.7811 17.3012 14.881C17.087 14.9809 16.9157 15.1213 16.7872 15.3022C16.6587 15.483 16.5945 15.7019 16.5945 15.9589H14.5315C14.5315 15.3878 14.6838 14.8905 14.9884 14.467C15.2977 14.0434 15.7117 13.7127 16.2304 13.4747C16.7492 13.2368 17.3202 13.1178 17.9436 13.1178C18.648 13.1178 19.2642 13.232 19.7925 13.4605C20.3207 13.6841 20.7324 14.0149 21.0274 14.4527C21.3225 14.8905 21.47 15.433 21.47 16.0802C21.47 16.4086 21.3938 16.7274 21.2416 17.0368C21.0893 17.3413 20.8704 17.6174 20.5848 17.8648C20.3041 18.1075 19.9614 18.3026 19.5569 18.4502C19.1524 18.5929 18.6979 18.6643 18.1935 18.6643H16.7658V17.5721ZM16.7658 19.1354V18.0718H18.1935C18.7598 18.0718 19.2571 18.1361 19.6854 18.2646C20.1137 18.393 20.473 18.5786 20.7633 18.8213C21.0536 19.0593 21.2725 19.3424 21.42 19.6708C21.5675 19.9944 21.6413 20.3537 21.6413 20.7487C21.6413 21.2341 21.5485 21.6672 21.3629 22.0479C21.1773 22.4238 20.9156 22.7427 20.5777 23.0044C20.2446 23.2661 19.8543 23.466 19.407 23.604C18.9597 23.7373 18.4719 23.8039 17.9436 23.8039C17.5058 23.8039 17.0751 23.7444 16.6516 23.6254C16.2328 23.5017 15.8521 23.3185 15.5095 23.0758C15.1716 22.8283 14.9003 22.519 14.6957 22.1478C14.4958 21.7719 14.3959 21.3269 14.3959 20.8129H16.4589C16.4589 21.0794 16.5255 21.3174 16.6587 21.5268C16.792 21.7362 16.9752 21.9003 17.2084 22.0193C17.4463 22.1383 17.7105 22.1978 18.0008 22.1978C18.3291 22.1978 18.6099 22.1383 18.8431 22.0193C19.081 21.8956 19.2619 21.7243 19.3856 21.5054C19.5141 21.2817 19.5783 21.0223 19.5783 20.7273C19.5783 20.3466 19.5093 20.042 19.3713 19.8136C19.2333 19.5804 19.0358 19.4091 18.7788 19.2996C18.5218 19.1902 18.2173 19.1354 17.8651 19.1354H16.7658Z" fill="#F24822"/>
<path fill-rule="evenodd" clip-rule="evenodd" d="M20.7462 30.0521C18.7928 30.0822 18.4044 32.3062 18.4044 32.3062C18.4044 32.3062 17.9537 30.0822 16.0002 30.0521C14.0467 30.0221 12.8445 31.7351 13.5057 33.5384C14.1669 35.3415 14.8257 35.7473 15.8637 37.0546C16.9018 38.362 18.412 40.6235 18.4044 41.1569C18.397 40.6235 19.8446 38.362 20.8827 37.0546C21.9208 35.7473 22.5795 35.3415 23.2407 33.5384C23.9019 31.7351 22.6998 30.0221 20.7462 30.0521Z" fill="#F24822"/>
<defs>
<filter id="filter0_d_45_934" x="0.948178" y="0.8133" width="62.4264" height="84.4264" filterUnits="userSpaceOnUse" color-interpolation-filters="sRGB">
<feFlood flood-opacity="0" result="BackgroundImageFix"/>
<feColorMatrix in="SourceAlpha" type="matrix" values="0 0 0 0 0 0 0 0 0 0 0 0 0 0 0 0 0 0 127 0" result="hardAlpha"/>
<feOffset dy="0.913706"/>
<feGaussianBlur stdDeviation="3.1066"/>
<feColorMatrix type="matrix" values="0 0 0 0 0 0 0 0 0 0 0 0 0 0 0 0 0 0 0.1 0"/>
<feBlend mode="normal" in2="BackgroundImageFix" result="effect1_dropShadow_45_934"/>
<feBlend mode="normal" in="SourceGraphic" in2="effect1_dropShadow_45_934" result="shape"/>
</filter>
</defs>
</svg>
