<svg width="64" height="86" viewBox="0 0 64 86" fill="none" xmlns="http://www.w3.org/2000/svg">
<g filter="url(#filter0_d_45_943)">
<rect x="6.80688" y="6.11279" width="50" height="72" rx="3.65482" fill="#F2F2F2"/>
<rect x="6.89826" y="6.20416" width="49.8173" height="71.8173" rx="3.56345" stroke="#D2D2D2" stroke-width="0.182741"/>
</g>
<path d="M19.6093 13.1607H19.9091V14.8025H19.7878C19.2452 14.8025 18.7622 14.8834 18.3387 15.0452C17.9151 15.207 17.5558 15.4378 17.2608 15.7376C16.9705 16.0326 16.7468 16.3896 16.5898 16.8083C16.4375 17.2271 16.3614 17.6959 16.3614 18.2146V19.9421C16.3614 20.3133 16.3971 20.6416 16.4684 20.9272C16.5446 21.2079 16.6517 21.4435 16.7897 21.6338C16.9324 21.8194 17.099 21.9598 17.2893 22.055C17.4797 22.1454 17.6938 22.1906 17.9318 22.1906C18.1555 22.1906 18.3577 22.143 18.5386 22.0479C18.7241 21.9527 18.8812 21.8194 19.0097 21.6481C19.1429 21.472 19.2429 21.2674 19.3095 21.0342C19.3809 20.7963 19.4166 20.5369 19.4166 20.2562C19.4166 19.9754 19.3809 19.716 19.3095 19.4781C19.2429 19.2401 19.1429 19.0355 19.0097 18.8642C18.8764 18.6881 18.7146 18.5525 18.5243 18.4573C18.3339 18.3621 18.1198 18.3145 17.8818 18.3145C17.5582 18.3145 17.2727 18.3907 17.0252 18.543C16.7825 18.6905 16.5922 18.8808 16.4542 19.114C16.3162 19.3472 16.2424 19.5923 16.2329 19.8493L15.6118 19.4495C15.6261 19.0831 15.7023 18.7357 15.8403 18.4073C15.983 18.079 16.1781 17.7887 16.4256 17.5364C16.6778 17.2795 16.98 17.0796 17.3322 16.9368C17.6843 16.7893 18.0817 16.7155 18.5243 16.7155C19.0097 16.7155 19.4356 16.8083 19.802 16.9939C20.1732 17.1795 20.4826 17.4341 20.73 17.7577C20.9775 18.0813 21.1631 18.4549 21.2868 18.8785C21.4105 19.302 21.4724 19.7541 21.4724 20.2347C21.4724 20.7392 21.3891 21.2079 21.2226 21.641C21.0608 22.074 20.8252 22.4524 20.5159 22.776C20.2113 23.0996 19.8449 23.3518 19.4166 23.5326C18.9883 23.7135 18.5076 23.8039 17.9746 23.8039C17.4226 23.8039 16.9205 23.704 16.4684 23.5041C16.0211 23.2995 15.6356 23.0139 15.312 22.6475C14.9884 22.2811 14.7386 21.8456 14.5625 21.3412C14.3912 20.8367 14.3055 20.2847 14.3055 19.6851V18.8856C14.3055 18.048 14.4269 17.2818 14.6696 16.5871C14.917 15.8875 15.2716 15.2831 15.7332 14.7739C16.1948 14.26 16.7516 13.8626 17.4036 13.5818C18.0555 13.301 18.7908 13.1607 19.6093 13.1607Z" fill="#F24822"/>
<path fill-rule="evenodd" clip-rule="evenodd" d="M20.3918 30.0521C18.4383 30.0822 18.0499 32.3062 18.0499 32.3062C18.0499 32.3062 17.5992 30.0822 15.6457 30.0521C13.6922 30.0221 12.49 31.7351 13.1512 33.5384C13.8124 35.3415 14.4712 35.7473 15.5092 37.0546C16.5473 38.362 18.0575 40.6235 18.0499 41.1569C18.0425 40.6235 19.4901 38.362 20.5282 37.0546C21.5663 35.7473 22.2251 35.3415 22.8862 33.5384C23.5474 31.7351 22.3453 30.0221 20.3918 30.0521Z" fill="#F24822"/>
<defs>
<filter id="filter0_d_45_943" x="0.593686" y="0.8133" width="62.4264" height="84.4264" filterUnits="userSpaceOnUse" color-interpolation-filters="sRGB">
<feFlood flood-opacity="0" result="BackgroundImageFix"/>
<feColorMatrix in="SourceAlpha" type="matrix" values="0 0 0 0 0 0 0 0 0 0 0 0 0 0 0 0 0 0 127 0" result="hardAlpha"/>
<feOffset dy="0.913706"/>
<feGaussianBlur stdDeviation="3.1066"/>
<feColorMatrix type="matrix" values="0 0 0 0 0 0 0 0 0 0 0 0 0 0 0 0 0 0 0.1 0"/>
<feBlend mode="normal" in2="BackgroundImageFix" result="effect1_dropShadow_45_943"/>
<feBlend mode="normal" in="SourceGraphic" in2="effect1_dropShadow_45_943" result="shape"/>
</filter>
</defs>
</svg>
