<svg width="63" height="86" viewBox="0 0 63 86" fill="none" xmlns="http://www.w3.org/2000/svg">
<g filter="url(#filter0_d_45_952)">
<rect x="6.7749" y="6.11279" width="50" height="72" rx="3.65482" fill="#F2F2F2"/>
<rect x="6.86627" y="6.20416" width="49.8173" height="71.8173" rx="3.56345" stroke="#D2D2D2" stroke-width="0.182741"/>
</g>
<path d="M15.7298 22.0978H15.8654C16.4365 22.0978 16.9266 22.0288 17.3359 21.8908C17.7499 21.7481 18.0902 21.5434 18.3567 21.2769C18.6232 21.0104 18.8207 20.6845 18.9491 20.299C19.0776 19.9088 19.1419 19.4662 19.1419 18.9713V17.0011C19.1419 16.6251 19.1038 16.2944 19.0277 16.0088C18.9563 15.7233 18.8516 15.4877 18.7136 15.3022C18.5803 15.1118 18.4233 14.969 18.2424 14.8739C18.0664 14.7787 17.8713 14.7311 17.6571 14.7311C17.4287 14.7311 17.2264 14.7882 17.0503 14.9024C16.8743 15.0119 16.7244 15.1618 16.6006 15.3521C16.4817 15.5425 16.3889 15.7614 16.3222 16.0088C16.2604 16.2516 16.2294 16.5062 16.2294 16.7726C16.2294 17.0391 16.2604 17.2937 16.3222 17.5364C16.3841 17.7744 16.4769 17.9862 16.6006 18.1718C16.7244 18.3526 16.879 18.4977 17.0646 18.6072C17.2502 18.7119 17.4691 18.7642 17.7214 18.7642C17.9641 18.7642 18.1806 18.719 18.3709 18.6286C18.5661 18.5334 18.7302 18.4097 18.8635 18.2574C19.0015 18.1051 19.1062 17.9362 19.1776 17.7506C19.2537 17.565 19.2918 17.377 19.2918 17.1867L19.9699 17.5579C19.9699 17.891 19.8985 18.2193 19.7558 18.543C19.613 18.8666 19.4131 19.1616 19.1562 19.4281C18.9039 19.6898 18.6113 19.8992 18.2781 20.0563C17.945 20.2133 17.5881 20.2918 17.2074 20.2918C16.722 20.2918 16.2913 20.2038 15.9154 20.0277C15.5394 19.8469 15.2206 19.5994 14.9588 19.2853C14.7018 18.9665 14.5067 18.5953 14.3735 18.1718C14.2402 17.7482 14.1736 17.289 14.1736 16.7941C14.1736 16.2896 14.2545 15.8161 14.4163 15.3735C14.5829 14.931 14.8184 14.5407 15.123 14.2029C15.4323 13.865 15.8011 13.6009 16.2294 13.4105C16.6625 13.2154 17.1431 13.1178 17.6714 13.1178C18.1996 13.1178 18.6803 13.2201 19.1133 13.4248C19.5464 13.6294 19.9176 13.9197 20.2269 14.2956C20.5362 14.6668 20.7742 15.1118 20.9407 15.6305C21.1121 16.1492 21.1977 16.7251 21.1977 17.358V18.0718C21.1977 18.7476 21.124 19.3758 20.9764 19.9563C20.8337 20.5369 20.6171 21.0628 20.3268 21.5339C20.0413 22.0003 19.6844 22.4 19.2561 22.7332C18.8326 23.0663 18.34 23.3209 17.7785 23.497C17.2169 23.673 16.5887 23.7611 15.8939 23.7611H15.7298V22.0978Z" fill="#F24822"/>
<path fill-rule="evenodd" clip-rule="evenodd" d="M20.3598 30.0521C18.4063 30.0822 18.018 32.3062 18.018 32.3062C18.018 32.3062 17.5672 30.0822 15.6137 30.0521C13.6602 30.0221 12.458 31.7351 13.1193 33.5384C13.7804 35.3415 14.4392 35.7473 15.4773 37.0546C16.5153 38.362 18.0255 40.6235 18.018 41.1569C18.0105 40.6235 19.4582 38.362 20.4962 37.0546C21.5343 35.7473 22.1931 35.3415 22.8542 33.5384C23.5154 31.7351 22.3133 30.0221 20.3598 30.0521Z" fill="#F24822"/>
<defs>
<filter id="filter0_d_45_952" x="0.561703" y="0.8133" width="62.4264" height="84.4264" filterUnits="userSpaceOnUse" color-interpolation-filters="sRGB">
<feFlood flood-opacity="0" result="BackgroundImageFix"/>
<feColorMatrix in="SourceAlpha" type="matrix" values="0 0 0 0 0 0 0 0 0 0 0 0 0 0 0 0 0 0 127 0" result="hardAlpha"/>
<feOffset dy="0.913706"/>
<feGaussianBlur stdDeviation="3.1066"/>
<feColorMatrix type="matrix" values="0 0 0 0 0 0 0 0 0 0 0 0 0 0 0 0 0 0 0.1 0"/>
<feBlend mode="normal" in2="BackgroundImageFix" result="effect1_dropShadow_45_952"/>
<feBlend mode="normal" in="SourceGraphic" in2="effect1_dropShadow_45_952" result="shape"/>
</filter>
</defs>
</svg>
